<?xml version="1.0" encoding="UTF-8" standalone="no"?>
<svg
   xmlns:dc="http://purl.org/dc/elements/1.1/"
   xmlns:cc="http://creativecommons.org/ns#"
   xmlns:rdf="http://www.w3.org/1999/02/22-rdf-syntax-ns#"
   xmlns:svg="http://www.w3.org/2000/svg"
   xmlns="http://www.w3.org/2000/svg"
   xmlns:sodipodi="http://sodipodi.sourceforge.net/DTD/sodipodi-0.dtd"
   xmlns:inkscape="http://www.inkscape.org/namespaces/inkscape"
   viewBox="0 0 13 13"
   id="vector"
   version="1.1"
   sodipodi:docname="app logo.svg"
   inkscape:export-filename="/Users/gareth/Desktop/app logo.png"
   inkscape:export-xdpi="3780.9199"
   inkscape:export-ydpi="3780.9199"
   inkscape:version="1.0.2 (e86c8708, 2021-01-15)">
  <metadata
     id="metadata839">
    <rdf:RDF>
      <cc:Work
         rdf:about="">
        <dc:format>image/svg+xml</dc:format>
        <dc:type
           rdf:resource="http://purl.org/dc/dcmitype/StillImage" />
        <dc:title></dc:title>
      </cc:Work>
    </rdf:RDF>
  </metadata>
  <defs
     id="defs837" />
  <sodipodi:namedview
     pagecolor="#ffffff"
     bordercolor="#666666"
     borderopacity="1"
     objecttolerance="10"
     gridtolerance="10"
     guidetolerance="10"
     inkscape:pageopacity="0"
     inkscape:pageshadow="2"
     inkscape:window-width="1221"
     inkscape:window-height="735"
     id="namedview835"
     showgrid="false"
     inkscape:zoom="44.461538"
     inkscape:cx="6.5"
     inkscape:cy="6.5"
     inkscape:window-x="0"
     inkscape:window-y="25"
     inkscape:window-maximized="0"
     inkscape:current-layer="vector"
     inkscape:document-rotation="0" />
  <path
     id="path"
     d="M 11.052,1.663 C 10.238,1.659 6.175,1.7699999 5.493,2.0229999 4.951,2.4999999 4.745,7.9509997 4.085,8.6449996 3.811,8.8809997 2.551,8.5379997 2.043,8.7799997 c -0.627,0.297 -0.641,0.295 -0.856,0.9679999 C 1.057,10.75 1.149,11.281 1.96,11.647 3.266,11.726 4.98,10.76 5.294,10.271 5.754,9.8929997 6.083,6.4199998 6.204,5.8139998 c 0.47,-0.145 3.115,-0.575 3.641,-0.374 0.111,0.579 -0.311,2.8159999 -0.499,3.5359999 -0.252,0.1849999 -1.572,-0.125 -2.144,0.07 -0.548,0.187 -0.487,0.086 -0.967,0.584 C 5.917,10.398 6.316,11.35 7.015,11.763 c 1.051,0.01 2.385,-0.114 3.505,-1.216 0.467,-0.7550003 0.901,-6.6000002 0.988,-7.5040001 0.071,-0.492 0.07,-1.176 -0.456,-1.3789999 z m -0.698,1.0389999 c -0.058,0.716 -0.085,0.662 -0.242,1.276 -0.59,0.092 -3.077,0.507 -3.67,0.409 0.014,-0.721 0.077,-0.78 0.176,-1.352 0.629,-0.053 3.337,-0.407 3.736,-0.333 z"
     fill="#ffffff"
     stroke-width="0.999995"
     style="fill:#232333;fill-opacity:1" />
</svg>
