<?xml version="1.0" encoding="UTF-8" standalone="no"?>
<svg
   xmlns:dc="http://purl.org/dc/elements/1.1/"
   xmlns:cc="http://creativecommons.org/ns#"
   xmlns:rdf="http://www.w3.org/1999/02/22-rdf-syntax-ns#"
   xmlns:svg="http://www.w3.org/2000/svg"
   xmlns="http://www.w3.org/2000/svg"
   xmlns:sodipodi="http://sodipodi.sourceforge.net/DTD/sodipodi-0.dtd"
   xmlns:inkscape="http://www.inkscape.org/namespaces/inkscape"
   viewBox="0 0 1024 500"
   id="vector"
   version="1.1"
   sodipodi:docname="splash_logo.svg"
   inkscape:version="1.0.2 (e86c8708, 2021-01-15)"
   width="1024"
   height="500"
   inkscape:export-filename="/Users/gareth/StudioProjects/OpenSongTablet/app/src/main/res/drawable/splash_logo.png"
   inkscape:export-xdpi="96"
   inkscape:export-ydpi="96">
  <metadata
     id="metadata919">
    <rdf:RDF>
      <cc:Work
         rdf:about="">
        <dc:format>image/svg+xml</dc:format>
        <dc:type
           rdf:resource="http://purl.org/dc/dcmitype/StillImage" />
        <dc:title></dc:title>
      </cc:Work>
    </rdf:RDF>
  </metadata>
  <defs
     id="defs917" />
  <sodipodi:namedview
     pagecolor="#ffffff"
     bordercolor="#666666"
     borderopacity="1"
     objecttolerance="10"
     gridtolerance="10"
     guidetolerance="10"
     inkscape:pageopacity="0"
     inkscape:pageshadow="2"
     inkscape:window-width="1260"
     inkscape:window-height="643"
     id="namedview915"
     showgrid="false"
     inkscape:zoom="0.35355339"
     inkscape:cx="14.466994"
     inkscape:cy="19.73733"
     inkscape:window-x="0"
     inkscape:window-y="25"
     inkscape:window-maximized="0"
     inkscape:current-layer="vector"
     inkscape:document-rotation="0" />
  <path
     id="path"
     d="M 40.006543,6 H 983.99345 c 9.01587,0 17.66215,3.8083639 24.04235,10.588277 6.3804,6.779912 9.9642,15.967802 9.9642,25.548487 V 457.84616 c 0,9.58068 -3.5838,18.78564 -9.9642,25.56556 C 1001.6717,490.17455 993.00932,494 983.99345,494 H 40.006543 C 30.99063,494 22.328285,490.17455 15.96411,483.41172 9.5838654,476.6318 6,467.42684 6,457.84616 V 42.136764 C 6,32.556079 9.5838654,23.368189 15.96411,16.588277 22.344354,9.8083639 30.99063,6 40.006543,6 Z"
     fill="#ffffff"
     stroke="#232333"
     stroke-width="0.600003"
     stroke-linejoin="round"
     style="stroke-width:12;stroke-miterlimit:4;stroke-dasharray:none" />
  <path
     id="path_1"
     d="M 959.97519,66.991528 C 933.71166,66.834146 802.60528,70.696611 780.61607,79.435019 763.11249,96.00304 756.48159,285.11965 735.15872,309.22016 c -8.82493,8.17915 -49.45541,-3.72255 -65.8701,4.66631 -20.21771,10.32881 -20.67276,10.24143 -27.61245,33.59046 -4.19307,34.76138 -1.23513,53.19943 24.93084,65.90506 42.14191,2.74387 97.43183,-30.77667 107.55695,-47.74665 14.8545,-13.12509 25.48343,-133.62775 29.36769,-154.63487 15.17955,-5.05079 100.50352,-19.95852 117.48704,-12.98526 3.57549,20.08084 -10.02759,97.69539 -16.1059,122.68721 -8.12609,6.43148 -50.72308,-4.35171 -69.18555,2.44678 -17.64988,6.4839 -15.71586,2.97104 -31.18793,20.23815 -10.2714,26.65212 2.61659,59.68331 25.1746,74.01432 33.90206,0.34958 76.93785,-3.94976 113.08272,-42.20653 15.08203,-26.19772 29.0589,-228.99869 31.87053,-260.36957 2.27531,-17.057373 2.2428,-40.825843 -14.69197,-47.834042 z m -22.50928,36.019712 c -1.88525,24.85203 -2.77912,22.98201 -7.83355,44.28625 -19.03132,3.19826 -99.26834,17.59915 -118.41342,14.1737 0.45512,-25.00932 2.50284,-27.03664 5.67202,-46.90777 20.29897,-1.83507 107.68697,-14.12127 120.57495,-11.55218 z"
     fill="#232333"
     stroke-width="0.999997" />
  <path
     id="path_2"
     d="m 109.98599,99.673169 q 0,8.109241 -2.51909,15.047541 -2.50284,6.88586 -7.05345,11.93666 -4.566862,5.0508 -10.970222,7.89952 -6.403361,2.81377 -14.171904,2.81377 -7.784797,0 -14.236914,-2.81377 -6.40336,-2.84872 -11.002728,-7.89952 -4.550612,-5.0508 -7.069699,-11.93666 -2.51909,-6.9383 -2.51909,-15.047541 0,-8.109241 2.51909,-14.995106 2.519087,-6.938296 7.069699,-11.989095 4.599368,-5.0508 11.002728,-7.864567 6.452117,-2.84872 14.236914,-2.84872 7.784796,0 14.188155,2.84872 6.403362,2.848721 10.953971,7.899519 4.55061,4.99837 7.0697,11.936664 2.51909,6.885867 2.51909,14.99511 z m -13.083011,0 q 0,-6.064455 -1.51145,-10.870577 -1.478953,-4.84108 -4.274325,-8.214105 -2.811629,-3.373025 -6.842171,-5.155659 -3.981785,-1.782635 -9.003709,-1.782635 -5.021925,0 -9.052466,1.782635 -4.030542,1.782634 -6.874675,5.155659 -2.795375,3.373025 -4.323081,8.214105 -1.511451,4.788647 -1.511451,10.870577 0,6.064461 1.511451,10.923011 1.51145,4.78865 4.323081,8.16167 2.844133,3.3206 6.874675,5.10323 4.030541,1.78264 9.052466,1.78264 5.021924,0 9.019961,-1.78264 4.01429,-1.80011 6.825919,-5.1207 2.795372,-3.35555 4.25807,-8.16168 1.527699,-4.84107 1.527705,-10.905531 z"
     fill="#232333"
     style="stroke-width:0.999997" />
  <path
     id="path_3"
     d="M 114.76413,153.64157 V 84.206188 h 7.16721 q 1.13765,0 1.95026,0.559258 0.81261,0.559258 1.04015,1.73021 l 0.94261,4.858552 q 2.94165,-3.617703 6.72841,-5.872211 3.85177,-2.237032 8.97121,-2.237032 3.98178,0 7.26473,1.782634 3.31544,1.782635 5.68826,5.208094 2.42157,3.373021 3.70549,8.371393 1.33261,4.945934 1.33261,11.377404 0,5.87221 -1.46261,10.87058 -1.49528,4.98089 -4.24182,8.65102 -2.71411,3.67014 -6.59839,5.76735 -3.83551,2.04479 -8.62991,2.04479 -4.12805,0 -7.02094,-1.32823 -2.84414,-1.38068 -5.11945,-3.775 v 21.42657 z m 22.76931,-60.452297 q -3.65674,0 -6.25709,1.677773 -2.56785,1.642832 -4.7944,4.648831 v 23.471363 q 1.99902,2.65648 4.32308,3.72256 2.37282,1.01366 5.07069,1.01366 2.6491,0 4.79439,-1.06608 2.17779,-1.06608 3.65674,-3.26816 1.51145,-2.20208 2.32406,-5.5052 0.81261,-3.37302 0.81261,-7.89952 0,-4.5964 -0.71509,-7.7597 -0.68259,-3.215748 -1.96652,-5.208105 -1.26767,-1.992358 -3.12042,-2.901153 -1.80399,-0.926264 -4.12805,-0.926269 z"
     fill="#232333"
     style="stroke-width:0.999997" />
  <path
     id="path_4"
     d="m 184.04718,83.402255 q 4.59936,0 8.45114,1.572916 3.88426,1.572917 6.69589,4.648832 2.79539,3.006012 4.37183,7.445124 1.5602,4.386683 1.5602,10.049163 0,1.43311 -0.14597,2.39433 -0.0968,0.92628 -0.42264,1.48554 -0.29243,0.50684 -0.81266,0.76897 -0.52022,0.20971 -1.33271,0.20971 h -30.06653 q 0.52023,8.05681 4.03053,11.83181 3.51049,3.77499 9.29626,3.77499 2.84413,0 4.8919,-0.71655 2.08027,-0.71656 3.60799,-1.57292 1.5602,-0.87386 2.69786,-1.57292 1.18642,-0.71653 2.27531,-0.71653 0.71507,0 1.23513,0.31459 0.52023,0.31456 0.89384,0.87386 l 3.41295,4.5964 q -1.95026,2.44675 -4.37183,4.12453 -2.42159,1.62535 -5.07067,2.65647 -2.61663,0.96124 -5.36324,1.38067 -2.69786,0.40196 -5.26571,0.40196 -5.07068,0 -9.44252,-1.78263 -4.35563,-1.88752 -7.5898,-5.40036 -3.21794,-3.56527 -5.0707,-8.77336 -1.85274,-5.26052 -1.85274,-12.14638 0,-5.34791 1.60907,-10.049174 1.60907,-4.736216 4.59936,-8.214101 3.03917,-3.512843 7.346,-5.55763 4.37185,-2.044788 9.81631,-2.044788 z m 0.24372,9.018038 q -5.11945,0 -8.01234,3.110872 -2.89288,3.110873 -3.70548,8.825795 h 22.00545 q 0,-2.44676 -0.61765,-4.596405 -0.61765,-2.202079 -1.90153,-3.827424 -1.28384,-1.625354 -3.21792,-2.551616 -1.95026,-0.961239 -4.55062,-0.961239 z"
     fill="#232333"
     style="stroke-width:0.999997" />
  <path
     id="path_5"
     d="M 210.14819,136.54925 V 84.206188 h 7.16722 q 2.27529,0 2.99039,2.289463 l 0.81265,4.124529 q 1.46261,-1.625354 3.08793,-2.95358 1.65771,-1.328229 3.4617,-2.289463 1.85275,-0.961239 3.93304,-1.485556 2.08027,-0.506839 4.5506,-0.506839 3.9818,0 7.06971,1.485557 3.08791,1.433102 5.11945,4.072097 2.08027,2.604044 3.13665,6.274175 1.08884,3.617703 1.08884,8.004379 l -0.0163,33.32829 h -11.70152 v -33.3108 q 0,-4.788648 -2.08027,-7.392692 -2.04777,-2.656475 -6.15959,-2.656475 -3.03913,0 -5.68825,1.485521 -2.64911,1.485522 -5.02192,4.037143 l -0.0328,37.837303 z"
     fill="#232333"
     style="stroke-width:0.999997" />
  <path
     id="path_6"
     d="m 296.93484,76.201809 q -0.5199,1.118515 -1.23513,1.572916 -0.66636,0.454402 -1.60907,0.454402 -0.9427,0 -2.12903,-0.768971 -1.18642,-0.82139 -2.79537,-1.782638 -1.60907,-0.96124 -3.78676,-1.73021 -2.12904,-0.82139 -5.07069,-0.82139 -2.64911,0 -4.64812,0.716534 -1.95025,0.664114 -3.31544,1.887496 -1.33255,1.223389 -1.99902,2.953582 -0.66636,1.677773 -0.66636,3.722561 0,2.604045 1.33271,4.33425 1.38143,1.73021 3.608,2.953582 2.22653,1.223389 5.07067,2.202079 2.84415,0.96124 5.78578,2.097218 2.9904,1.066079 5.83453,2.551616 2.84413,1.433102 5.07068,3.670134 2.22656,2.20208 3.55922,5.40033 1.38143,3.21573 1.38143,7.81214 0,4.99837 -1.60907,9.38505 -1.56019,4.33425 -4.64812,7.60241 -3.03915,3.21574 -7.4435,5.10323 -4.40434,1.83507 -10.10886,1.83507 -3.26668,0 -6.45211,-0.71654 -3.20152,-0.64667 -6.14316,-1.92247 -2.89289,-1.27581 -5.44448,-3.05845 -2.51909,-1.78263 -4.5181,-3.98471 l 3.70549,-6.58876 q 0.52007,-0.71654 1.23514,-1.17094 0.76394,-0.50684 1.65772,-0.50684 1.18643,0 2.56785,1.06608 1.38143,1.01366 3.21792,2.28947 1.90152,1.2758 4.40436,2.34189 2.56785,1.01366 6.12708,1.01366 5.46073,0 8.45112,-2.76134 2.99041,-2.81377 2.99041,-8.00438 0,-2.90115 -1.38142,-4.73622 -1.33272,-1.81759 -3.55927,-3.04096 -2.22653,-1.27581 -5.07067,-2.14965 -2.86038,-0.85635 -5.80204,-1.87002 -2.92539,-1.03114 -5.78578,-2.46423 -2.84413,-1.415609 -5.07067,-3.722564 -2.22655,-2.289462 -3.60798,-5.714919 -1.33271,-3.460408 -1.33271,-8.511209 0,-4.037144 1.46261,-7.84709 1.51148,-3.827423 4.37183,-6.781004 2.89288,-2.95358 7.0697,-4.736215 4.17681,-1.782636 9.54004,-1.782636 6.07832,0 11.19775,2.044786 5.11944,2.044786 8.72742,5.714919 z"
     fill="#232333"
     style="stroke-width:0.999997" />
  <path
     id="path_7"
     d="m 326.69259,83.402255 q 5.46074,0 9.86507,1.887496 4.4531,1.887496 7.58979,5.347908 3.13666,3.460407 4.84314,8.476252 1.70649,4.998369 1.70649,11.167689 0,6.22174 -1.70649,11.22011 -1.70648,4.99837 -4.84314,8.51121 -3.13669,3.51284 -7.58979,5.40034 -4.40433,1.88749 -9.86507,1.88749 -5.46072,0 -9.91382,-1.88749 -4.46936,-1.87002 -7.63854,-5.40034 -3.13667,-3.51284 -4.8919,-8.51121 -1.70648,-4.99837 -1.70648,-11.22011 0,-6.16932 1.70648,-11.167689 1.75523,-4.998369 4.8919,-8.476252 3.18543,-3.460412 7.63854,-5.347908 4.4531,-1.887496 9.91382,-1.887496 z m 0,44.216345 q 6.07833,0 8.9712,-4.38668 2.94165,-4.38668 2.94165,-12.86294 0,-8.47625 -2.94165,-12.897889 -2.89287,-4.43911 -8.9712,-4.43911 -6.15957,0 -9.10122,4.491542 -2.94165,4.439107 -2.94165,12.862937 0,8.42382 2.94165,12.86293 2.94165,4.38669 9.10122,4.38669 z"
     fill="#232333"
     style="stroke-width:0.999997" />
  <path
     id="path_8"
     d="M 355.28019,136.54925 V 84.206188 h 7.16721 q 2.27529,0 2.9904,2.289463 l 0.81265,4.124529 q 1.46261,-1.625354 3.08791,-2.95358 1.65771,-1.328229 3.46172,-2.289463 1.85273,-0.961239 3.93302,-1.485556 2.08027,-0.506839 4.5506,-0.506839 3.9818,0 7.06971,1.485557 3.08793,1.433102 5.11944,4.072097 2.08028,2.604044 3.13668,6.274175 1.08883,3.617703 1.08883,8.004379 l -0.0162,33.32829 H 385.9643 v -33.3108 q 0,-4.788648 -2.08028,-7.392692 -2.04776,-2.656475 -6.15957,-2.656475 -3.03915,0 -5.68827,1.485521 -2.64911,1.485522 -5.02192,4.037143 l -0.0163,37.837303 z"
     fill="#232333"
     style="stroke-width:0.999997" />
  <path
     id="path_9"
     d="m 421.47533,83.297395 q 3.13667,0 5.8833,0.716533 2.7466,0.664114 5.02191,1.992357 h 13.99312 v 4.701265 q 0,1.170935 -0.56894,1.835063 -0.56893,0.664114 -1.95026,0.926281 l -4.37184,0.873862 q 0.47136,1.328229 0.71507,2.813768 0.29242,1.485521 0.29242,3.110876 0,3.87985 -1.46261,7.04315 -1.43013,3.11088 -3.98178,5.31296 -2.51909,2.20208 -6.02956,3.42545 -3.4617,1.17094 -7.54102,1.17094 -2.74661,0 -5.36322,-0.55926 -2.27531,1.48552 -2.27531,3.32059 0,1.57292 1.33272,2.3419 1.38142,0.71655 3.55922,1.01365 2.22655,0.31459 5.02192,0.40197 2.79538,0.0524 5.73701,0.31459 2.94165,0.26215 5.73703,0.92628 2.79537,0.61169 4.97316,1.99235 2.22657,1.38067 3.55924,3.77499 1.38142,2.3419 1.38142,6.06446 0,3.46041 -1.60906,6.72857 -1.5602,3.26817 -4.59938,5.81978 -2.9904,2.55162 -7.34598,4.0721 -4.37184,1.57292 -9.96259,1.57292 -5.542,0 -9.62128,-1.17094 -4.09536,-1.17095 -6.79323,-3.11088 -2.6491,-1.8875 -3.98178,-4.38668 -1.33272,-2.49918 -1.33272,-5.19062 0,-3.67013 2.08029,-6.16931 2.08028,-2.49918 5.78577,-3.98471 -1.80399,-1.06608 -2.89289,-2.84872 -1.08884,-1.78264 -1.08884,-4.64884 0,-1.17095 0.37377,-2.39432 0.37377,-1.27581 1.13771,-2.49919 0.81265,-1.22339 1.99901,-2.28946 1.18659,-1.11851 2.79546,-1.99235 -3.68926,-2.14965 -5.81829,-5.7324 -2.09653,-3.56527 -2.09653,-8.35392 0,-3.879851 1.43013,-6.990725 1.46261,-3.163303 4.03056,-5.347904 2.61659,-2.237032 6.12707,-3.425456 3.55921,-1.170935 7.73605,-1.170935 z m 12.85547,55.593745 q 0,-1.53797 -0.86136,-2.49918 -0.86136,-0.96124 -2.32407,-1.48552 -1.46277,-0.55926 -3.46171,-0.82139 -1.95027,-0.26215 -4.1768,-0.34955 -2.1778,-0.15738 -4.55062,-0.26215 -2.32406,-0.15738 -4.50185,-0.4544 -1.99902,1.17094 -3.21794,2.81377 -1.18642,1.57291 -1.18642,3.67013 0,1.38067 0.61765,2.55162 0.66636,1.22337 2.04778,2.09721 1.43014,0.87385 3.65676,1.32823 2.22653,0.50684 5.46072,0.50684 3.2667,0 5.63951,-0.55926 2.37283,-0.50683 3.88428,-1.48552 1.56035,-0.92628 2.27529,-2.23703 0.71507,-1.27581 0.71507,-2.81377 z m -12.85547,-29.78049 q 2.17779,0 3.78677,-0.6117 1.60907,-0.66411 2.64908,-1.78263 1.08884,-1.11852 1.60907,-2.70891 0.56894,-1.57291 0.56894,-3.46041 0,-3.87985 -2.17779,-6.11688 -2.11278,-2.306942 -6.43586,-2.306942 -4.32308,0 -6.50087,2.289463 -2.12905,2.237032 -2.12905,6.116889 0,1.83506 0.52023,3.42545 0.56894,1.57292 1.60906,2.76134 1.08884,1.11852 2.69786,1.78263 1.65773,0.6117 3.78676,0.6117 z"
     fill="#232333"
     style="stroke-width:0.999997" />
  <path
     id="path_10"
     d="m 510.13099,136.54925 h -9.86507 q -1.65772,0 -2.74663,-0.87384 -1.04013,-0.92629 -1.51148,-2.23704 l -5.11941,-15.04753 h -28.40882 l -5.13568,15.04754 q -0.37377,1.17095 -1.51148,2.14964 -1.08884,0.96124 -2.69787,0.96124 h -9.91383 l 26.94611,-73.752156 h 13.05051 z m -44.40096,-27.85804 h 21.87543 l -8.35361,-24.537453 q -0.56894,-1.625354 -1.28384,-3.827419 -0.66636,-2.237035 -1.33256,-4.841079 -0.66635,2.604044 -1.33255,4.841079 -0.61765,2.237032 -1.23513,3.93228 z"
     fill="#232333"
     style="stroke-width:0.999997" />
  <path
     id="path_11"
     d="M 512.065,153.64157 V 84.206188 h 7.16722 q 1.13771,0 1.95026,0.559258 0.81265,0.559258 1.04013,1.73021 l 0.94271,4.841078 q 2.94163,-3.617699 6.72839,-5.872211 3.83551,-2.23703 8.9712,-2.23703 3.98178,0 7.26473,1.782635 3.31546,1.782634 5.68827,5.208091 2.42157,3.373025 3.7055,8.371395 1.33255,4.945936 1.33255,11.377406 0,5.87221 -1.46261,10.87058 -1.46261,4.99837 -4.22558,8.6685 -2.69785,3.67013 -6.59839,5.76735 -3.83551,2.04478 -8.6299,2.04478 -4.12806,0 -7.02095,-1.32823 -2.84413,-1.38066 -5.11944,-3.77499 v 21.42657 z m 22.76931,-60.452297 q -3.65675,0 -6.25709,1.677773 -2.56785,1.625353 -4.7944,4.648831 v 23.471363 q 1.99902,2.65648 4.32309,3.72256 2.3728,1.01366 5.07069,1.01366 2.64908,0 4.79438,-1.06608 2.17779,-1.06608 3.65674,-3.26816 1.51132,-2.20208 2.32407,-5.5052 0.81265,-3.37302 0.81265,-7.89952 0,-4.5964 -0.71507,-7.7597 -0.66649,-3.215748 -1.95033,-5.208105 -1.28388,-1.992358 -3.13667,-2.901153 -1.80399,-0.926282 -4.12806,-0.926269 z"
     fill="#232333"
     style="stroke-width:0.999997" />
  <path
     id="path_12"
     d="M 561.24411,153.64157 V 84.206188 h 7.16721 q 1.13772,0 1.95027,0.559258 0.81265,0.559258 1.04013,1.73021 l 0.94271,4.841078 q 2.94163,-3.617699 6.72838,-5.872211 3.83552,-2.23703 8.97121,-2.23703 3.98178,0 7.26473,1.782635 3.31546,1.782634 5.68825,5.208091 2.42159,3.373025 3.70552,8.371395 1.33255,4.945936 1.33255,11.377406 0,5.87221 -1.46261,10.87058 -1.46261,4.99837 -4.22556,8.6685 -2.69786,3.67013 -6.59841,5.76735 -3.8355,2.04478 -8.6299,2.04478 -4.12804,0 -7.02093,-1.32823 -2.84414,-1.38066 -5.11945,-3.77499 v 21.42657 z m 22.76931,-60.452297 q -3.65675,0 -6.25709,1.677773 -2.56785,1.625353 -4.7944,4.648831 v 23.471363 q 1.99902,2.65648 4.32308,3.72256 2.37282,1.01366 5.07068,1.01366 2.64911,0 4.7944,-1.06608 2.17779,-1.06608 3.65674,-3.26816 1.51148,-2.20208 2.32407,-5.5052 0.81265,-3.37302 0.81265,-7.89952 0,-4.5964 -0.71507,-7.7597 -0.66652,-3.215747 -1.95036,-5.208103 -1.28385,-1.992358 -3.13666,-2.901153 -1.80399,-0.926282 -4.12806,-0.926282 z"
     fill="#232333"
     style="stroke-width:0.999997" />
  <path
     id="path_13"
     d="m 62.204568,217.27466 q -0.227526,0.41939 -0.487575,0.62917 -0.260032,0.1922 -0.666342,0.1922 -0.438799,0 -1.023875,-0.47179 -0.56884,-0.47179 -1.462708,-1.01375 -0.877614,-0.57677 -2.129034,-1.04856 -1.235165,-0.47179 -2.990403,-0.47179 -1.657723,0 -2.941645,0.4892 -1.283924,0.47179 -2.145289,1.29316 -0.845125,0.82138 -1.283924,1.95741 -0.4388,1.10096 -0.4388,2.39434 0,1.66033 0.747607,2.76131 0.76386,1.06597 1.999019,1.85254 1.251418,0.7688 2.811627,1.34557 1.592716,0.55936 3.217934,1.15337 1.657721,0.61176 3.21793,1.38056 1.592716,0.75156 2.811628,1.905 1.251418,1.15337 1.99902,2.83123 0.76386,1.67774 0.76386,4.12453 0,2.58656 -0.812603,4.87603 -0.812603,2.25451 -2.405323,3.93228 -1.560209,1.67791 -3.868019,2.63901 -2.275307,0.96117 -5.200699,0.96117 -3.559229,0 -6.500873,-1.38056 -2.925394,-1.39797 -4.989421,-3.77499 l 1.462708,-2.51666 q 0.211273,-0.297 0.487574,-0.4892 0.308792,-0.22719 0.666342,-0.22719 0.536317,0 1.235165,0.62917 0.698848,0.61177 1.722732,1.34557 1.056398,0.75139 2.502836,1.38056 1.478944,0.61176 3.607985,0.61176 1.771486,0 3.152923,-0.52419 1.381443,-0.52419 2.324061,-1.45055 0.975133,-0.96116 1.478944,-2.28945 0.520065,-1.32815 0.520065,-2.95358 0,-1.78263 -0.76386,-2.91862 -0.747607,-1.15337 -1.966514,-1.92244 -1.235165,-0.7688 -2.811628,-1.29334 -1.560209,-0.55937 -3.217933,-1.10097 -1.64147,-0.57677 -3.217932,-1.32816 -1.56021,-0.75138 -2.795375,-1.92244 -1.235165,-1.18836 -1.999018,-2.95357 -0.747607,-1.78264 -0.747607,-4.40416 0,-2.09725 0.747607,-4.05464 0.76386,-1.95738 2.194045,-3.4604 1.430185,-1.52035 3.526722,-2.42928 2.129037,-0.90877 4.859403,-0.90877 3.071663,0 5.607005,1.04857 2.535339,1.04856 4.420593,3.02348 z"
     fill="#232333"
     style="stroke-width:0.999997" />
  <path
     id="path_14"
     d="m 79.903196,222.23806 q 2.844132,0 5.119438,1.01375 2.307809,1.01375 3.884272,2.88367 1.608968,1.87002 2.454078,4.54397 0.877615,2.63902 0.877615,5.92465 0,3.30311 -0.877615,5.94212 -0.845125,2.63897 -2.454078,4.50902 -1.592716,1.87 -3.884272,2.88366 -2.275306,0.99616 -5.119438,0.99616 -2.844133,0 -5.151943,-0.99616 -2.275305,-1.01374 -3.884272,-2.88373 -1.608968,-1.87005 -2.486583,-4.50902 -0.877615,-2.63902 -0.877615,-5.94212 0,-3.26816 0.877615,-5.92465 0.877615,-2.67395 2.486583,-4.54397 1.608969,-1.87001 3.884272,-2.88367 2.30781,-1.01375 5.151943,-1.01375 z m 0,24.88699 q 3.835515,0 5.73702,-2.76133 1.901505,-2.77883 1.901505,-7.74223 0,-4.98088 -1.901505,-7.75971 -1.901505,-2.77883 -5.73702,-2.77883 -1.950262,0 -3.380455,0.71639 -1.430185,0.7164 -2.405322,2.06228 -0.942643,1.34557 -1.430201,3.33807 -0.455069,1.9574 -0.455069,4.43912 0,2.4817 0.455069,4.4391 0.487575,1.95742 1.430201,3.30313 0.975133,1.32816 2.405322,2.04479 1.430185,0.7164 3.380455,0.7164 z"
     fill="#232333"
     style="stroke-width:0.999997" />
  <path
     id="path_15"
     d="m 97.520562,250.56799 v -27.893 h 2.714118 q 0.97513,0 1.23516,1.01374 l 0.35755,3.04096 q 1.69023,-2.00982 3.77051,-3.25071 2.09653,-1.24093 4.84315,-1.24093 2.12904,0 3.738,0.76879 1.64147,0.75139 2.71412,2.14962 1.10514,1.38073 1.65772,3.33808 0.56882,1.95742 0.56882,4.31679 v 17.75645 h -4.56686 v -17.75645 q 0,-3.16331 -1.34894,-4.89351 -1.33266,-1.76523 -4.09555,-1.76523 -2.01527,0 -3.78675,1.04856 -1.73899,1.04856 -3.21794,2.83125 v 20.53525 z"
     fill="#232333"
     style="stroke-width:0.999997" />
  <path
     id="path_16"
     d="m 134.36426,222.20311 q 1.69023,0 3.15293,0.41939 1.47894,0.38457 2.68161,1.15336 h 7.03719 v 1.81759 q 0,0.90877 -1.07265,1.15337 l -2.94164,0.43697 q 0.87761,1.78265 0.87761,3.98472 0,2.04478 -0.74759,3.72256 -0.71508,1.6605 -2.01527,2.83126 -1.28392,1.18836 -3.07166,1.81757 -1.77149,0.62917 -3.88428,0.62917 -1.82024,0 -3.4292,-0.47179 -0.81261,0.55936 -1.25142,1.18836 -0.40631,0.62918 -0.40631,1.24094 0,0.99599 0.74759,1.52036 0.7476,0.4892 1.96651,0.71639 1.23517,0.22719 2.79538,0.27959 1.56021,0.0528 3.16917,0.1922 1.64147,0.10375 3.20168,0.41939 1.56021,0.29701 2.79538,0.99617 1.23516,0.68157 1.96651,1.90496 0.7476,1.20595 0.7476,3.14583 0,1.78265 -0.84511,3.46042 -0.81261,1.67792 -2.37282,2.97106 -1.56021,1.32816 -3.81927,2.09722 -2.25905,0.80396 -5.08693,0.80396 -2.84413,0 -4.98942,-0.61176 -2.12903,-0.61177 -3.52672,-1.62516 -1.41394,-1.01375 -2.12904,-2.35937 -0.69885,-1.32816 -0.69885,-2.77882 0,-2.06226 1.20266,-3.49536 1.23517,-1.45073 3.34795,-2.30695 -1.10514,-0.55936 -1.77149,-1.45055 -0.63383,-0.94358 -0.63383,-2.48173 0,-0.61177 0.21127,-1.24077 0.21127,-0.66416 0.61758,-1.29316 0.4388,-0.62917 1.0564,-1.20595 0.61758,-0.57677 1.43019,-1.01374 -1.91773,-1.1532 -3.02288,-3.05823 -1.07265,-1.92246 -1.07265,-4.49152 0,-2.04482 0.7151,-3.68762 0.74761,-1.67791 2.04778,-2.83124 1.30017,-1.18836 3.10416,-1.81761 1.82025,-0.62917 3.96554,-0.62917 z m 8.09359,29.86788 q 0,-1.04857 -0.53632,-1.67791 -0.53631,-0.62918 -1.4627,-0.96117 -0.92638,-0.34958 -2.12904,-0.5242 -1.20266,-0.1565 -2.53534,-0.22719 -1.33267,-0.0879 -2.71412,-0.1565 -1.38144,-0.0879 -2.63285,-0.297 -1.46271,0.75138 -2.37282,1.8176 -0.89386,1.06597 -0.89386,2.5516 0,0.94359 0.4388,1.73032 0.45506,0.82137 1.38144,1.39796 0.92637,0.61177 2.30781,0.94359 1.41393,0.34958 3.29919,0.34958 1.8365,0 3.29919,-0.34958 1.46271,-0.34958 2.45408,-1.01357 1.02388,-0.66417 1.56021,-1.57276 0.53632,-0.90877 0.53632,-2.00984 z m -8.09359,-15.13492 q 1.38144,0 2.43783,-0.41939 1.07265,-0.41939 1.78774,-1.15336 0.71508,-0.75139 1.07265,-1.76507 0.35755,-1.04856 0.35755,-2.28946 0,-2.55162 -1.46271,-4.0721 -1.43018,-1.52053 -4.19306,-1.52053 -2.74662,0 -4.19306,1.52053 -1.43019,1.52036 -1.43019,4.0721 0,1.24093 0.35755,2.28946 0.39006,1.01375 1.10514,1.76507 0.7151,0.75138 1.77149,1.15336 1.0564,0.41939 2.40532,0.41939 z"
     fill="#232333"
     style="stroke-width:0.999997" />
  <path
     id="path_17"
     d="m 151.60783,250.56799 v -40.54622 h 4.58311 v 16.69036 q 1.60897,-2.00983 3.68924,-3.21574 2.09653,-1.24094 4.79438,-1.24094 2.25908,0 4.06307,0.90877 1.82024,0.90877 3.10416,2.72639 1.28384,1.78263 1.9665,4.45657 0.69884,2.63901 0.69884,6.11689 0,3.0759 -0.76395,5.74987 -0.76394,2.639 -2.22655,4.5964 -1.43013,1.92246 -3.52673,3.05845 -2.08027,1.10097 -4.68061,1.10097 -2.50285,0 -4.27433,-1.04856 -1.77148,-1.06615 -3.07166,-2.93611 l -0.22752,2.53414 q -0.21128,1.04856 -1.17016,1.04856 z m 11.57154,-24.41512 q -2.22654,0 -3.91676,1.10096 -1.65772,1.10097 -3.07167,3.11086 v 13.4921 q 1.23519,1.81761 2.71412,2.55162 1.51137,0.75138 3.34795,0.75138 3.64048,0 5.5745,-2.7788 1.95026,-2.77883 1.95026,-7.93449 0,-2.72639 -0.45512,-4.68379 -0.43871,-1.95742 -1.28384,-3.19825 -0.84512,-1.25835 -2.08029,-1.85255 -1.23513,-0.57677 -2.79536,-0.57677 z"
     fill="#232333"
     style="stroke-width:0.999997" />
  <path
     id="path_18"
     d="m 190.15799,222.23806 q 2.84414,0 5.11945,1.01375 2.30781,1.01375 3.88428,2.88367 1.60906,1.87002 2.45407,4.54397 0.8776,2.63902 0.8776,5.92465 0,3.30311 -0.8776,5.94212 -0.84512,2.63897 -2.45407,4.50902 -1.59283,1.87 -3.88428,2.88366 -2.27531,0.99616 -5.11945,0.99616 -2.84411,0 -5.15193,-0.99616 -2.27531,-1.01374 -3.88428,-2.88366 -1.60906,-1.87005 -2.48658,-4.50902 -0.8776,-2.63901 -0.8776,-5.94212 0,-3.26815 0.8776,-5.92465 0.8776,-2.67395 2.48658,-4.54397 1.60907,-1.87001 3.88428,-2.88367 2.30782,-1.01375 5.15193,-1.01375 z m 0,24.88699 q 3.83552,0 5.73703,-2.76133 1.90151,-2.77883 1.90151,-7.74223 0,-4.98088 -1.90151,-7.75971 -1.90151,-2.77883 -5.73703,-2.77883 -1.95024,0 -3.38045,0.71639 -1.43013,0.7164 -2.40531,2.06228 -0.94271,1.34557 -1.43014,3.33807 -0.45495,1.9574 -0.45495,4.43912 0,2.4817 0.45495,4.4391 0.48743,1.95742 1.43014,3.30313 0.97518,1.32816 2.40531,2.04479 1.43014,0.7164 3.38045,0.7164 z"
     fill="#232333"
     style="stroke-width:0.999997" />
  <path
     id="path_19"
     d="m 218.27429,222.23806 q 2.84411,0 5.11942,1.01375 2.30782,1.01375 3.88427,2.88367 1.60906,1.87002 2.45409,4.54397 0.8776,2.63902 0.8776,5.92465 0,3.30311 -0.8776,5.94212 -0.84513,2.63897 -2.45409,4.50902 -1.59283,1.87 -3.88427,2.88366 -2.27531,0.99616 -5.11942,0.99616 -2.84414,0 -5.15195,-0.99616 -2.27531,-1.01374 -3.88427,-2.88366 -1.60906,-1.87005 -2.48658,-4.50902 -0.8776,-2.63901 -0.8776,-5.94212 0,-3.26815 0.8776,-5.92465 0.8776,-2.67395 2.48658,-4.54397 1.60907,-1.87001 3.88427,-2.88367 2.30781,-1.01375 5.15195,-1.01375 z m 0,24.88699 q 3.8355,0 5.73702,-2.76133 1.90149,-2.77883 1.90149,-7.74223 0,-4.98088 -1.90149,-7.75971 -1.90152,-2.77883 -5.73702,-2.77883 -1.95027,0 -3.38045,0.71639 -1.43014,0.7164 -2.40534,2.06228 -0.94271,1.34557 -1.43014,3.33807 -0.45511,1.9574 -0.45511,4.43912 0,2.4817 0.45511,4.4391 0.48743,1.95742 1.43014,3.30313 0.97518,1.32816 2.40534,2.04479 1.43013,0.7164 3.38045,0.7164 z"
     fill="#232333"
     style="stroke-width:0.999997" />
  <path
     id="path_20"
     d="m 240.62103,210.02177 v 23.87334 h 1.17018 q 0.52007,0 0.84513,-0.13891 0.32506,-0.1565 0.7477,-0.62918 l 8.19111,-9.43746 q 0.39001,-0.43698 0.76394,-0.71639 0.39001,-0.2796 1.02389,-0.2796 h 4.14431 l -9.55627,10.92301 q -0.35754,0.47179 -0.71524,0.82137 -0.32489,0.34958 -0.76394,0.62917 0.45512,0.332 0.81265,0.7688 0.39001,0.41939 0.71507,0.96117 l 10.14137,13.77172 h -4.09555 q -0.56877,0 -0.97518,-0.22719 -0.39001,-0.2446 -0.74771,-0.75138 l -8.5324,-11.42983 q -0.39001,-0.57677 -0.76394,-0.75156 -0.39001,-0.1922 -1.15395,-0.1922 h -1.28384 v 13.31733 h -4.58314 v -40.54622 z"
     fill="#232333"
     style="stroke-width:0.999997" />
  <path
     id="path_21"
     d="m 272.83286,250.56799 v -23.69857 l -2.86039,-0.34958 q -0.5363,-0.13892 -0.89384,-0.41939 -0.32506,-0.297 -0.32506,-0.85637 v -2.00984 h 4.09554 v -2.69143 q 0,-2.39432 0.61765,-4.24687 0.63388,-1.87002 1.78773,-3.14581 1.17019,-1.29317 2.81165,-1.9574 1.64145,-0.66417 3.68924,-0.66417 1.73897,0 3.21792,0.55936 l -0.0968,2.44676 q -0.0328,0.55919 -0.43871,0.66417 -0.40625,0.10375 -1.15379,0.10375 h -0.79641 q -1.17019,0 -2.14529,0.33199 -0.94271,0.332 -1.64146,1.06598 -0.69883,0.75138 -1.0726,1.9574 -0.35753,1.20594 -0.35753,3.00602 v 2.55161 h 7.50849 v 3.54778 h -7.34599 v 23.78597 z"
     fill="#232333"
     style="stroke-width:0.999997" />
  <path
     id="path_22"
     d="m 299.22641,222.23806 q 2.84413,0 5.11942,1.01375 2.30782,1.01375 3.88428,2.88367 1.60907,1.87002 2.45408,4.54397 0.8776,2.63902 0.8776,5.92465 0,3.30311 -0.8776,5.94212 -0.84513,2.63897 -2.45408,4.50902 -1.59283,1.87 -3.88428,2.88366 -2.27529,0.99616 -5.11942,0.99616 -2.84414,0 -5.15195,-0.99616 -2.2753,-1.01374 -3.88427,-2.88366 -1.60906,-1.87005 -2.48658,-4.50902 -0.8776,-2.63901 -0.8776,-5.94212 0,-3.26815 0.8776,-5.92465 0.8776,-2.67395 2.48658,-4.54397 1.60907,-1.87001 3.88427,-2.88367 2.30781,-1.01375 5.15195,-1.01375 z m 0,24.88699 q 3.83552,0 5.73702,-2.76133 1.90151,-2.77883 1.90151,-7.74223 0,-4.98088 -1.90151,-7.75971 -1.9015,-2.77883 -5.73702,-2.77883 -1.95027,0 -3.38045,0.71639 -1.43014,0.7164 -2.40532,2.06228 -0.94271,1.34557 -1.43014,3.33807 -0.45495,1.9574 -0.45495,4.43912 0,2.4817 0.45495,4.4391 0.48743,1.95742 1.43014,3.30313 0.97518,1.32816 2.40532,2.04479 1.43013,0.7164 3.38045,0.7164 z"
     fill="#232333"
     style="stroke-width:0.999997" />
  <path
     id="path_23"
     d="m 316.84378,250.56799 v -27.893 h 2.61659 q 0.7477,0 1.02389,0.297 0.27619,0.297 0.39001,1.04856 l 0.30866,4.35173 q 1.33255,-2.91863 3.28295,-4.54398 1.96652,-1.66033 4.61563,-1.66033 1.0726,0 1.95027,0.2796 0.87759,0.2446 1.60906,0.71639 l -0.58517,3.65263 q -0.17877,0.68158 -0.79642,0.68158 -0.35753,0 -1.10507,-0.2446 -0.74771,-0.27959 -2.08028,-0.27959 -2.37282,0 -3.99805,1.48554 -1.59283,1.48571 -2.66535,4.31678 v 17.7565 z"
     fill="#232333"
     style="stroke-width:0.999997" />
  <path
     id="path_24"
     d="m 346.56901,250.56799 v -27.893 h 2.71412 q 0.97518,0 1.23513,1.01374 l 0.32506,2.86621 q 1.43014,-1.90499 3.20169,-3.1109 1.78773,-1.20594 4.14429,-1.20594 2.63286,0 4.24183,1.57276 1.64148,1.57276 2.35656,4.24687 0.5363,-1.52036 1.4139,-2.62152 0.89383,-1.10097 1.99901,-1.81757 1.10507,-0.71639 2.32407,-1.04856 1.25137,-0.332 2.53534,-0.332 2.04777,0 3.64048,0.71639 1.60907,0.68158 2.71411,2.04478 1.12131,1.34557 1.72274,3.33809 0.58518,1.9574 0.58518,4.49154 v 17.75643 h -4.55054 v -17.75643 q 0,-3.26817 -1.33255,-4.96342 -1.33256,-1.71291 -3.86803,-1.71291 -1.12131,0 -2.14527,0.43698 -0.99142,0.41939 -1.7715,1.24093 -0.76394,0.82138 -1.23513,2.09724 -0.43872,1.24094 -0.43872,2.88366 v 17.75645 h -4.5506 v -17.75645 q 0,-3.35554 -1.25137,-5.01585 -1.25137,-1.66033 -3.65672,-1.66033 -1.69023,0 -3.15292,0.99616 -1.43014,0.96117 -2.63286,2.63899 v 20.77995 z"
     fill="#232333"
     style="stroke-width:0.999997" />
  <path
     id="path_25"
     d="m 392.1239,222.67499 v 17.79138 q 0,3.16333 1.34895,4.89353 1.34896,1.73031 4.09554,1.73031 1.99904,0 3.77051,-1.01374 1.7715,-1.01375 3.25044,-2.83127 v -20.57013 h 4.55062 v 27.89301 h -2.71411 q -0.97518,0 -1.23513,-1.01375 l -0.35754,-3.00602 q -1.69023,2.00982 -3.78677,3.25069 -2.09653,1.20577 -4.81064,1.20577 -2.12905,0 -3.77051,-0.75139 -1.60906,-0.76879 -2.7141,-2.14963 -1.10508,-1.38056 -1.65773,-3.33807 -0.53647,-1.95742 -0.53647,-4.31678 v -17.79139 z"
     fill="#232333"
     style="stroke-width:0.999997" />
  <path
     id="path_26"
     d="m 431.12914,227.27138 q -0.30866,0.61177 -0.94271,0.61177 -0.39001,0 -0.8776,-0.297 -0.48743,-0.29701 -1.20266,-0.664 -0.69883,-0.38457 -1.65771,-0.68157 -0.97518,-0.332 -2.30783,-0.332 -1.15395,0 -2.08028,0.332 -0.92631,0.297 -1.59283,0.85636 -0.63388,0.55937 -0.99142,1.29317 -0.32506,0.71639 -0.32506,1.57276 0,1.06597 0.56894,1.78261 0.58518,0.71639 1.54379,1.24094 0.94271,0.52419 2.14529,0.94358 1.20266,0.38458 2.45409,0.85637 1.28384,0.43697 2.48659,0.99616 1.20265,0.55936 2.14527,1.38056 0.9427,0.82137 1.51148,2.0448 0.58517,1.18836 0.58517,2.8662 0,1.92245 -0.63388,3.58276 -0.63389,1.62516 -1.90151,2.83123 -1.25137,1.18836 -3.07166,1.87002 -1.82024,0.68158 -4.19307,0.68158 -2.71412,0 -4.90817,-0.94359 -2.19403,-0.96117 -3.73798,-2.44674 l 1.0726,-1.87004 q 0.21124,-0.34958 0.48743,-0.55937 0.27618,-0.1922 0.7477,-0.1922 0.45495,0 0.97518,0.38458 0.5199,0.38457 1.23514,0.85636 0.7477,0.47179 1.77149,0.85637 1.05637,0.38457 2.6166,0.38457 1.33255,0 2.32406,-0.34958 0.99142,-0.38457 1.65772,-1.01375 0.66635,-0.62917 0.97518,-1.45054 0.32506,-0.82137 0.32506,-1.76524 0,-1.15337 -0.58518,-1.90495 -0.56893,-0.76879 -1.51148,-1.29316 -0.94271,-0.55937 -2.17781,-0.94359 -1.20266,-0.41939 -2.48658,-0.85636 -1.25137,-0.43698 -2.48657,-0.99616 -1.20266,-0.57678 -2.14528,-1.43297 -0.94255,-0.85636 -1.54396,-2.0972 -0.56894,-1.25834 -0.56894,-3.05845 0,-1.59017 0.61765,-3.05844 0.61765,-1.48554 1.78774,-2.58656 1.17018,-1.13596 2.89289,-1.78264 1.72272,-0.66417 3.91677,-0.66417 2.56784,0 4.58312,0.87377 2.04777,0.85637 3.52671,2.35937 z"
     fill="#232333"
     style="stroke-width:0.999997" />
  <path
     id="path_27"
     d="m 443.172,222.67499 v 27.893 h -4.56688 v -27.893 z m 1.02389,-8.75589 q 0,0.71639 -0.27619,1.34556 -0.25995,0.61177 -0.71507,1.10097 -0.43871,0.47179 -1.02389,0.75156 -0.58517,0.2796 -1.25137,0.2796 -0.66636,0 -1.25137,-0.2796 -0.56894,-0.27959 -1.02389,-0.75156 -0.43872,-0.4892 -0.69883,-1.10097 -0.25995,-0.62917 -0.25995,-1.34556 0,-0.7164 0.25995,-1.34557 0.25995,-0.66417 0.69883,-1.13596 0.45495,-0.4892 1.02389,-0.76897 0.58518,-0.27959 1.25137,-0.27959 0.66636,0 1.25137,0.27959 0.58518,0.27959 1.02389,0.76897 0.45496,0.47179 0.71507,1.13596 0.27619,0.62917 0.27619,1.34557 z"
     fill="#232333"
     style="stroke-width:0.999997" />
  <path
     id="path_28"
     d="m 468.4929,227.63841 q -0.21124,0.297 -0.40625,0.47179 -0.21124,0.1565 -0.58517,0.1565 -0.39001,0 -0.84513,-0.33199 -0.43871,-0.34958 -1.12131,-0.76897 -0.69883,-0.4194 -1.69023,-0.75139 -0.97519,-0.34958 -2.40534,-0.34958 -1.9015,0 -3.34793,0.75139 -1.46261,0.71639 -2.45409,2.09723 -0.97518,1.38056 -1.47901,3.33807 -0.48743,1.95738 -0.48743,4.3692 0,2.53414 0.53647,4.509 0.53646,1.95742 1.51148,3.30313 0.97518,1.32816 2.35656,2.0448 1.4139,0.68157 3.15293,0.68157 1.65772,0 2.74663,-0.41939 1.0726,-0.43697 1.78773,-0.96117 0.71507,-0.52419 1.17019,-0.94358 0.45495,-0.43698 0.92647,-0.43698 0.58518,0 0.8776,0.47179 l 1.28384,1.78265 q -1.69022,2.23701 -4.22558,3.26815 -2.53532,1.01375 -5.34696,1.01375 -2.43781,0 -4.53434,-0.96117 -2.08029,-0.96117 -3.60801,-2.77881 -1.54396,-1.85254 -2.43781,-4.50902 -0.8776,-2.67395 -0.8776,-6.08193 0,-3.11088 0.79642,-5.74989 0.81265,-2.63898 2.35658,-4.54396 1.56019,-1.92245 3.8355,-3.00602 2.27529,-1.06597 5.21694,-1.06597 2.71411,0 4.81066,0.96117 2.09654,0.94358 3.70549,2.67395 z"
     fill="#232333"
     style="stroke-width:0.999997" />
  <path
     id="path_29"
     d="m 479.39811,222.67499 v 27.893 h -4.55061 v -27.893 z m 1.02389,-8.75589 q 0,0.71639 -0.27619,1.34556 -0.25995,0.61177 -0.71506,1.10097 -0.43872,0.47179 -1.0239,0.75156 -0.58517,0.2796 -1.25137,0.2796 -0.66635,0 -1.25136,-0.2796 -0.56894,-0.27959 -1.0239,-0.75156 -0.43888,-0.4892 -0.69883,-1.10097 -0.25995,-0.62917 -0.25995,-1.34556 0,-0.7164 0.25995,-1.34557 0.25995,-0.66417 0.69883,-1.13596 0.45496,-0.4892 1.0239,-0.76897 0.58517,-0.27959 1.25136,-0.27959 0.66636,0 1.25137,0.27959 0.58518,0.27959 1.0239,0.76897 0.45495,0.47179 0.71506,1.13596 0.27619,0.62917 0.27619,1.34557 z"
     fill="#232333"
     style="stroke-width:0.999997" />
  <path
     id="path_30"
     d="m 506.08418,250.56799 h -2.01526 q -0.66636,0 -1.0726,-0.22719 -0.40625,-0.2272 -0.5363,-0.94359 l -0.52007,-2.58657 q -1.02389,0.99616 -1.99901,1.78263 -0.97518,0.76879 -2.04778,1.32815 -1.0726,0.5242 -2.3078,0.80397 -1.20266,0.27959 -2.68162,0.27959 -1.51148,0 -2.84413,-0.43697 -1.30008,-0.4718 -2.27531,-1.38056 -0.97518,-0.90877 -1.5602,-2.28947 -0.56893,-1.39797 -0.56893,-3.30311 0,-1.66051 0.84512,-3.16329 0.84513,-1.53812 2.71411,-2.72639 1.90152,-1.18837 4.94068,-1.92245 3.03915,-0.76879 7.44349,-0.87377 v -2.16712 q 0,-3.2507 -1.30007,-4.89352 -1.28385,-1.67791 -3.81926,-1.67791 -1.65772,0 -2.81164,0.47179 -1.12131,0.43697 -1.96652,1.01375 -0.81265,0.55918 -1.43013,1.01374 -0.58518,0.43698 -1.17019,0.43698 -0.45495,0 -0.81265,-0.2446 -0.32506,-0.2796 -0.53647,-0.66417 l -0.81265,-1.57293 q 2.14529,-2.23703 4.63187,-3.33807 2.48658,-1.10097 5.5095,-1.10097 2.17779,0 3.86803,0.7688 1.69021,0.76879 2.84411,2.14963 1.15379,1.38056 1.739,3.33809 0.58517,1.9574 0.58517,4.2993 z m -11.83158,-3.00602 q 1.20265,0 2.19404,-0.2446 0.99142,-0.27959 1.86902,-0.75139 0.89383,-0.4892 1.69021,-1.18836 0.81266,-0.68157 1.59284,-1.57276 v -5.8023 q -3.15293,0.10375 -5.34697,0.55936 -2.19405,0.41939 -3.59173,1.10097 -1.38142,0.68157 -2.01528,1.62516 -0.61764,0.94358 -0.61764,2.09721 0,1.10097 0.32489,1.90497 0.32506,0.80396 0.89384,1.32815 0.56894,0.48921 1.33271,0.75139 0.76394,0.22719 1.65773,0.22719 z"
     fill="#232333"
     style="stroke-width:0.999997" />
  <path
     id="path_31"
     d="m 512.65008,250.56799 v -27.893 h 2.71411 q 0.97518,0 1.23513,1.01374 l 0.35754,3.02348 q 1.69023,-2.00982 3.7705,-3.2507 2.09653,-1.24094 4.84316,-1.24094 2.12902,0 3.738,0.76879 1.64146,0.75139 2.71411,2.14964 1.10508,1.38073 1.65773,3.33806 0.56894,1.95742 0.56894,4.31679 v 17.75654 h -4.55059 v -17.75645 q 0,-3.16331 -1.34895,-4.89351 -1.33255,-1.76523 -4.09555,-1.76523 -2.01528,0 -3.78676,1.04856 -1.73898,1.04856 -3.21794,2.83126 v 20.53526 z"
     fill="#232333"
     style="stroke-width:0.999997" />
  <path
     id="path_32"
     d="m 555.60461,227.27138 q -0.30883,0.61177 -0.94271,0.61177 -0.39001,0 -0.8776,-0.297 -0.48743,-0.29701 -1.20266,-0.664 -0.69883,-0.38457 -1.65771,-0.68157 -0.97518,-0.332 -2.30782,-0.332 -1.15395,0 -2.08029,0.332 -0.92631,0.297 -1.59283,0.85636 -0.63388,0.55937 -0.99142,1.29317 -0.32506,0.71639 -0.32506,1.57276 0,1.06597 0.56894,1.78261 0.58518,0.71639 1.54412,1.24094 0.94255,0.52419 2.14529,0.94358 1.20266,0.38458 2.45409,0.85637 1.28384,0.43697 2.48658,0.99616 1.20266,0.55936 2.14527,1.38056 0.94271,0.82137 1.51149,2.0448 0.58517,1.18836 0.58517,2.8662 0,1.92245 -0.63388,3.58276 -0.63389,1.62516 -1.90151,2.83123 -1.25137,1.18836 -3.07166,1.87002 -1.82024,0.68158 -4.19305,0.68158 -2.71413,0 -4.90817,-0.94359 -2.19405,-0.96117 -3.73801,-2.44674 l 1.07261,-1.87004 q 0.21124,-0.34958 0.48742,-0.55937 0.27619,-0.1922 0.74771,-0.1922 0.45495,0 0.97518,0.38458 0.52006,0.38457 1.23513,0.85636 0.74771,0.47179 1.7715,0.85637 1.05637,0.38457 2.61659,0.38457 1.33255,0 2.32407,-0.34958 0.99142,-0.38457 1.65771,-1.01375 0.66636,-0.62917 0.97519,-1.45054 0.32506,-0.82137 0.32506,-1.76524 0,-1.15337 -0.58518,-1.90495 -0.56894,-0.76879 -1.51148,-1.29316 -0.94271,-0.55937 -2.17779,-0.94359 -1.20266,-0.41939 -2.48659,-0.85636 -1.25137,-0.43698 -2.48658,-0.99616 -1.20266,-0.57678 -2.14529,-1.43297 -0.94271,-0.85636 -1.54395,-2.0972 -0.56894,-1.25834 -0.56894,-3.05845 0,-1.59017 0.61765,-3.05844 0.61765,-1.48554 1.78773,-2.58656 1.17019,-1.13596 2.8929,-1.78264 1.72272,-0.66417 3.91676,-0.66417 2.56785,0 4.58313,0.87377 2.04777,0.85637 3.52671,2.35937 z"
     fill="#232333"
     style="stroke-width:0.999997" />
  <path
     id="path_33"
     d="m 585.24858,210.66841 q 2.01528,0 3.68925,0.71639 1.65772,0.68158 2.86038,1.85258 1.23513,1.15337 1.91776,2.69142 0.71507,1.52035 0.81265,3.16329 l -2.84411,0.61177 q -0.12957,0.0352 -0.22748,0.0352 -0.32506,0 -0.63388,-0.19219 -0.27619,-0.1922 -0.40625,-0.68158 -0.17877,-0.71639 -0.58517,-1.48572 -0.39001,-0.76879 -1.0239,-1.39796 -0.61764,-0.62918 -1.51148,-1.04857 -0.8776,-0.41939 -2.04777,-0.41939 -1.28384,0 -2.30781,0.43698 -1.02389,0.43697 -1.77148,1.24094 -0.71507,0.76879 -1.12132,1.85252 -0.39,1.04857 -0.39,2.28947 0,0.96117 0.21124,1.85255 0.22747,0.87377 0.66635,1.78263 0.43872,0.87377 1.12132,1.85254 0.69883,0.94359 1.65772,1.97486 l 10.54767,11.53472 q 0.97518,-1.85255 1.54395,-3.8624 0.58518,-2.04476 0.79642,-4.07208 0.0492,-0.5242 0.30866,-0.82137 0.25995,-0.29701 0.71507,-0.29701 h 2.81164 q -0.0492,3.1633 -0.94271,6.22174 -0.89383,3.05845 -2.58408,5.73239 l 7.68729,8.3714 h -4.40408 q -0.74771,0 -1.20266,-0.1922 -0.45496,-0.1922 -1.02389,-0.80396 l -3.70552,-4.01966 q -2.40531,2.49918 -5.55824,3.96724 -3.12042,1.45055 -6.89092,1.45055 -2.04779,0 -4.01427,-0.75139 -1.96652,-0.75139 -3.52675,-2.14962 -1.54396,-1.43296 -2.48658,-3.46042 -0.94271,-2.0448 -0.94271,-4.59641 0,-1.92245 0.58517,-3.63518 0.61765,-1.73031 1.65773,-3.19825 1.0726,-1.45055 2.53534,-2.62152 1.46261,-1.15336 3.20169,-1.97488 -1.56036,-2.11469 -2.3078,-4.12455 -0.74771,-2.00982 -0.74771,-4.15946 0,-2.00983 0.66636,-3.775 0.69883,-1.76506 1.96652,-3.05844 1.28384,-1.32816 3.10415,-2.06224 1.83649,-0.7688 4.12806,-0.7688 z m -10.17387,28.99405 q 0,1.78263 0.61765,3.16328 0.61764,1.34557 1.60906,2.28947 0.99142,0.94358 2.2753,1.43314 1.28384,0.47179 2.6166,0.47179 2.86039,0 5.15194,-1.13596 2.27531,-1.13596 4.01428,-3.00602 l -10.82406,-11.74431 q -2.71411,1.57276 -4.09555,3.77499 -1.34895,2.16712 -1.34895,4.75371 z"
     fill="#232333"
     style="stroke-width:0.999997" />
  <path
     id="path_34"
     d="m 68.461658,304.09947 q 0.40631,0 0.747607,0.34958 l 1.93401,2.28946 q -2.259054,2.81375 -5.476988,4.36919 -3.201679,1.57276 -7.736038,1.57276 -3.965532,0 -7.199717,-1.45055 -3.217939,-1.48536 -5.509496,-4.12444 -2.275305,-2.67394 -3.526723,-6.37903 -1.251418,-3.72255 -1.251418,-8.17915 0,-4.4566 1.332667,-8.17914 1.348936,-3.72257 3.786759,-6.37904 2.437827,-2.67395 5.818281,-4.12453 3.396708,-1.48554 7.508509,-1.48554 4.046792,0 6.955935,1.34556 2.941645,1.34557 5.216949,3.65266 l -1.608969,2.44674 q -0.178783,0.27959 -0.406309,0.47179 -0.227526,0.15651 -0.666342,0.15651 -0.325044,0 -0.715101,-0.24461 -0.35755,-0.27959 -0.877614,-0.66416 -0.520065,-0.38458 -1.202659,-0.82137 -0.698848,-0.43698 -1.64147,-0.82138 -0.942643,-0.38457 -2.194045,-0.62917 -1.251418,-0.27959 -2.892889,-0.27959 -2.941646,0 -5.395724,1.10096 -2.437829,1.06597 -4.193065,3.0759 -1.771488,2.00986 -2.76287,4.89352 -0.975133,2.88369 -0.975133,6.46642 0,3.6876 0.975133,6.57128 0.991386,2.88369 2.681609,4.89352 1.722732,1.97487 4.046795,3.02348 2.324061,1.04857 5.021924,1.04857 1.641471,0 2.941645,-0.1922 1.300177,-0.22719 2.405323,-0.66417 1.121393,-0.43697 2.08028,-1.10096 0.975133,-0.68158 1.950262,-1.62534 0.4388,-0.41939 0.845125,-0.41939 z"
     fill="#232333"
     style="stroke-width:0.999997" />
  <path
     id="path_35"
     d="m 77.286594,312.24366 v -40.5462 h 4.550612 v 16.41071 q 1.657723,-1.90497 3.689245,-3.02348 2.01527,-1.15337 4.664377,-1.15337 2.129036,0 3.738001,0.76879 1.641472,0.75139 2.714116,2.14964 1.105141,1.38074 1.657723,3.33808 0.568823,1.95739 0.568823,4.31677 v 17.75643 l -4.566861,-0.0175 v -17.75645 q 0,-3.16329 -1.348937,-4.89348 -1.332667,-1.76524 -4.09555,-1.76524 -2.015271,0 -3.78676,1.04856 -1.738983,1.04857 -3.217931,2.83127 v 20.53524 z"
     fill="#232333"
     style="stroke-width:0.999997" />
  <path
     id="path_36"
     d="m 110.01849,284.35067 v 17.79139 q 0,3.1633 1.34894,4.89351 1.34893,1.73031 4.09555,1.73031 1.99902,0 3.7705,-1.01374 1.77149,-1.01375 3.25044,-2.83127 v -20.57025 h 4.55061 v 27.89299 h -2.69786 q -0.97514,0 -1.23519,-1.01357 l -0.35755,-3.00604 q -1.69022,2.00984 -3.78675,3.25071 -2.09653,1.20577 -4.81065,1.20577 -2.12904,0 -3.77051,-0.75139 -1.60896,-0.76879 -2.71411,-2.14964 -1.10514,-1.38055 -1.65772,-3.33808 -0.53632,-1.93992 -0.53632,-4.29929 v -17.79139 z"
     fill="#232333"
     style="stroke-width:0.999997" />
  <path
     id="path_37"
     d="m 134.88433,312.24366 v -27.89299 h 2.6166 q 0.74759,0 1.02388,0.29701 0.27628,0.297 0.39006,1.04856 l 0.30879,4.35173 q 1.33266,-2.91863 3.28294,-4.54398 1.96651,-1.66033 4.61562,-1.66033 1.07265,0 1.95026,0.27959 0.87762,0.24461 1.60897,0.71657 l -0.58508,3.65266 q -0.17878,0.68157 -0.79636,0.68157 -0.35755,0 -1.10514,-0.2446 -0.74759,-0.27959 -2.08028,-0.27959 -2.37282,0 -3.99804,1.48554 -1.59272,1.48554 -2.66536,4.31677 v 17.75644 z"
     fill="#232333"
     style="stroke-width:0.999997" />
  <path
     id="path_38"
     d="m 173.46701,289.31408 q -0.21124,0.297 -0.40624,0.47179 -0.21124,0.1565 -0.58518,0.1565 -0.39,0 -0.84512,-0.33217 -0.43872,-0.34958 -1.12131,-0.76879 -0.69883,-0.41939 -1.69024,-0.75157 -0.97518,-0.34958 -2.40531,-0.34958 -1.90149,0 -3.34795,0.75139 -1.46261,0.71639 -2.45409,2.09723 -0.97518,1.38056 -1.47886,3.33804 -0.4875,1.95742 -0.4875,4.36924 0,2.53412 0.53624,4.509 0.53638,1.9574 1.51153,3.30312 0.97518,1.32816 2.35658,2.04478 1.41389,0.68158 3.15292,0.68158 1.65771,0 2.74662,-0.41939 1.0726,-0.43698 1.78773,-0.96117 0.71507,-0.52419 1.17019,-0.94359 0.45495,-0.43679 0.92647,-0.43679 0.58517,0 0.8776,0.47179 l 1.28384,1.78263 q -1.69022,2.23703 -4.22554,3.26817 -2.53536,1.01374 -5.34697,1.01374 -2.43784,0 -4.53437,-0.96117 -2.08028,-0.96117 -3.60797,-2.77881 -1.54396,-1.85254 -2.43784,-4.509 -0.87761,-2.67395 -0.87761,-6.08195 0,-3.11086 0.79635,-5.74987 0.8126,-2.63901 2.35657,-4.54396 1.56027,-1.92246 3.83551,-3.00602 2.27531,-1.06597 5.21695,-1.06597 2.71412,0 4.81065,0.96117 2.09653,0.94358 3.70549,2.67391 z"
     fill="#232333"
     style="stroke-width:0.999997" />
  <path
     id="path_39"
     d="m 179.98414,312.24366 v -40.5462 h 4.55062 v 16.41071 q 1.65771,-1.90497 3.68924,-3.02348 2.01526,-1.15337 4.66437,-1.15337 2.12904,0 3.73799,0.76879 1.64147,0.75139 2.71412,2.14964 1.10508,1.38074 1.65773,3.33808 0.56894,1.95739 0.56894,4.31677 v 17.75643 l -4.56687,-0.0175 v -17.75645 q 0,-3.16329 -1.34896,-4.89348 -1.33255,-1.76524 -4.09555,-1.76524 -2.01528,0 -3.78676,1.04856 -1.73897,1.04857 -3.21792,2.83127 v 20.53524 z"
     fill="#232333"
     style="stroke-width:0.999997" />
  <path
     id="path_40"
     d="m 218.98937,321.68114 v -37.33047 h 2.71411 q 0.97518,0 1.23513,1.01375 l 0.39001,3.30313 q 1.65771,-2.16715 3.78674,-3.49538 2.14529,-1.32816 4.94068,-1.32816 2.22653,0 4.04678,0.94359 1.82025,0.90876 3.10418,2.72637 1.28384,1.78265 1.96652,4.45662 0.69883,2.67395 0.69883,6.13435 0,3.07592 -0.76394,5.74987 -0.76395,2.639 -2.19405,4.5964 -1.43013,1.92246 -3.52673,3.05844 -2.08029,1.10096 -4.68062,1.10096 -2.40532,0 -4.12806,-0.85636 -1.69024,-0.85637 -2.99041,-2.4293 v 12.33864 z m 11.53905,-33.85258 q -2.22654,0 -3.91677,1.10096 -1.65773,1.10097 -3.07166,3.11086 v 13.4921 q 1.25137,1.8176 2.7466,2.55162 1.51148,0.75138 3.34796,0.75138 3.60799,0 5.55824,-2.77879 1.95027,-2.77883 1.95027,-7.93448 0,-2.72639 -0.45512,-4.68379 -0.43872,-1.95742 -1.28384,-3.19825 -0.84513,-1.25835 -2.08027,-1.85255 -1.23514,-0.57677 -2.79538,-0.57677 z"
     fill="#232333"
     style="stroke-width:0.999997" />
  <path
     id="path_41"
     d="m 247.57697,312.24366 v -27.89299 h 2.6166 q 0.74771,0 1.0239,0.29701 0.27618,0.297 0.39,1.04856 l 0.30883,4.35173 q 1.33255,-2.91863 3.28295,-4.54398 1.9665,-1.66033 4.61561,-1.66033 1.0726,0 1.95025,0.27959 0.8776,0.24461 1.60907,0.71657 l -0.58501,3.65266 q -0.17877,0.68157 -0.79642,0.68157 -0.35753,0 -1.10507,-0.2446 -0.74771,-0.27959 -2.08028,-0.27959 -2.37282,0 -3.99803,1.48554 -1.59283,1.48554 -2.66537,4.31677 v 17.75644 z"
     fill="#232333"
     style="stroke-width:0.999997" />
  <path
     id="path_42"
     d="m 278.74865,283.91375 q 2.32407,0 4.30684,0.85637 1.96652,0.82137 3.3967,2.42928 1.43014,1.57276 2.22655,3.91482 0.81266,2.30693 0.81266,5.27799 0,1.15337 -0.22748,1.53794 -0.22748,0.38458 -0.8776,0.38458 H 271.1265 q 0.0492,2.63899 0.66636,4.59639 0.61765,1.95742 1.69023,3.26817 1.0726,1.29317 2.56785,1.9574 1.47885,0.62918 3.33169,0.62918 1.72274,0 2.94164,-0.41939 1.25137,-0.43698 2.1453,-0.94359 0.89383,-0.4892 1.47885,-0.90877 0.61764,-0.4368 1.05636,-0.4368 0.56894,0 0.8776,0.4718 l 1.28384,1.78264 q -0.84512,1.10097 -2.01528,1.92245 -1.17018,0.80396 -2.53532,1.32816 -1.33256,0.52419 -2.76287,0.76879 -1.43014,0.27959 -2.84415,0.27959 -2.6816,0 -4.97317,-0.96117 -2.25905,-0.99616 -3.91678,-2.86618 -1.64146,-1.90498 -2.56782,-4.68379 -0.92647,-2.77881 -0.92647,-6.37905 0,-2.91862 0.81265,-5.45274 0.84513,-2.53416 2.40534,-4.36921 1.56002,-1.87002 3.81925,-2.91864 2.25905,-1.06597 5.07068,-1.06597 z m 0.0968,3.6002 q -3.2992,0 -5.20069,2.0623 -1.90151,2.04477 -2.35658,5.66247 h 14.1069 q 0,-1.71291 -0.43872,-3.11087 -0.43871,-1.43314 -1.28384,-2.44675 -0.84512,-1.04856 -2.08027,-1.59052 -1.20266,-0.57677 -2.76287,-0.57677 z"
     fill="#232333"
     style="stroke-width:0.999997" />
  <path
     id="path_43"
     d="m 310.44041,288.94707 q -0.30866,0.61177 -0.94271,0.61177 -0.39001,0 -0.8776,-0.29701 -0.48742,-0.297 -1.20266,-0.66416 -0.69883,-0.38458 -1.65771,-0.68158 -0.97518,-0.33217 -2.30781,-0.33217 -1.15395,0 -2.08028,0.33217 -0.9263,0.297 -1.59283,0.85637 -0.63388,0.55936 -0.99142,1.29334 -0.32506,0.71639 -0.32506,1.57276 0,1.06614 0.56894,1.78264 0.58518,0.7164 1.54379,1.24094 0.94271,0.5242 2.14531,0.94359 1.20266,0.38457 2.45407,0.85636 1.28385,0.43698 2.48659,0.99616 1.20266,0.55937 2.14528,1.38056 0.94271,0.82138 1.51149,2.0448 0.58517,1.18836 0.58517,2.86621 0,1.92244 -0.63388,3.58273 -0.63389,1.62516 -1.90151,2.83125 -1.25137,1.18836 -3.07166,1.87001 -1.82024,0.68157 -4.19305,0.68157 -2.71411,0 -4.90817,-0.94358 -2.19405,-0.96117 -3.73799,-2.44678 l 1.0726,-1.87001 q 0.21124,-0.34958 0.48743,-0.55919 0.27619,-0.19219 0.7477,-0.19219 0.45512,0 0.97519,0.38457 0.5199,0.38457 1.23513,0.85636 0.7477,0.4718 1.77148,0.85637 1.05637,0.38457 2.61661,0.38457 1.33255,0 2.32405,-0.34958 0.99142,-0.38457 1.65773,-1.01374 0.66636,-0.62918 0.97518,-1.45055 0.3249,-0.82137 0.3249,-1.76524 0,-1.15337 -0.58518,-1.90495 -0.56893,-0.76879 -1.51148,-1.29316 -0.94271,-0.55936 -2.17779,-0.94358 -1.20266,-0.4194 -2.48658,-0.85637 -1.25137,-0.43698 -2.48659,-0.99616 -1.20266,-0.57677 -2.1453,-1.43296 -0.94271,-0.85637 -1.54396,-2.09722 -0.56893,-1.25835 -0.56893,-3.05844 0,-1.59034 0.61764,-3.05844 0.61765,-1.48554 1.78776,-2.58657 1.17018,-1.13596 2.89287,-1.78263 1.72272,-0.66417 3.91679,-0.66417 2.56783,0 4.58311,0.87378 2.04776,0.85636 3.52671,2.35936 z"
     fill="#232333"
     style="stroke-width:0.999997" />
  <path
     id="path_44"
     d="m 328.35032,283.91375 q 2.32405,0 4.30683,0.85637 1.96651,0.82137 3.3967,2.42928 1.43014,1.57276 2.22655,3.91482 0.81265,2.30693 0.81265,5.27799 0,1.15337 -0.22747,1.53794 -0.22748,0.38458 -0.8776,0.38458 h -17.25982 q 0.0492,2.63899 0.66635,4.59639 0.61765,1.95742 1.69022,3.26817 1.0726,1.29317 2.56785,1.9574 1.47901,0.62918 3.33171,0.62918 1.72272,0 2.94165,-0.41939 1.25137,-0.43698 2.14527,-0.94359 0.89383,-0.4892 1.47901,-0.90877 0.61765,-0.4368 1.05636,-0.4368 0.56894,0 0.8776,0.4718 l 1.28384,1.78264 q -0.84512,1.10097 -2.01527,1.92245 -1.17019,0.80396 -2.53535,1.32816 -1.33255,0.52419 -2.76286,0.76879 -1.43014,0.27959 -2.84414,0.27959 -2.68162,0 -4.97316,-0.96117 -2.25906,-0.99616 -3.91677,-2.86618 -1.64148,-1.90498 -2.56785,-4.68379 -0.92647,-2.77881 -0.92647,-6.37905 0,-2.91862 0.81265,-5.45274 0.84512,-2.53416 2.40535,-4.36921 1.56003,-1.87002 3.81925,-2.91864 2.25906,-1.06597 5.07067,-1.06597 z m 0.0968,3.6002 q -3.2992,0 -5.2007,2.0623 -1.90151,2.04477 -2.35658,5.66247 h 14.10691 q 0,-1.71291 -0.43871,-3.11087 -0.43872,-1.43314 -1.28385,-2.44675 -0.84512,-1.04856 -2.08029,-1.59052 -1.20266,-0.57677 -2.76286,-0.57677 z"
     fill="#232333"
     style="stroke-width:0.999997" />
  <path
     id="path_45"
     d="m 345.18758,312.24366 v -27.89299 h 2.71413 q 0.97518,0 1.23513,1.01375 l 0.35753,3.0235 q 1.69022,-2.00984 3.77049,-3.25071 2.09655,-1.24094 4.84316,-1.24094 2.12903,0 3.738,0.7688 1.64148,0.75138 2.71411,2.14965 1.10508,1.38056 1.65771,3.33807 0.56894,1.9574 0.56894,4.31677 V 312.226 l -4.58311,0.0175 v -17.75644 q 0,-3.1633 -1.34895,-4.89349 -1.33272,-1.76524 -4.09555,-1.76524 -2.01526,0 -3.78676,1.04856 -1.739,1.04857 -3.21794,2.83127 v 20.53524 z"
     fill="#232333"
     style="stroke-width:0.999997" />
  <path
     id="path_46"
     d="m 381.85251,312.68056 q -3.07166,0 -4.72939,-1.85252 -1.64147,-1.85255 -1.64147,-5.31295 v -17.07486 h -3.12042 q -0.40625,0 -0.69883,-0.2446 -0.27619,-0.27959 -0.27619,-0.82137 v -1.95745 l 4.24183,-0.57678 1.05636,-8.61605 q 0.0492,-0.41939 0.32506,-0.66417 0.27619,-0.27959 0.71507,-0.27959 h 2.30782 v 9.61225 h 7.42723 v 3.54778 h -7.42723 v 16.74279 q 0,1.76506 0.79641,2.62153 0.79642,0.85637 2.04777,0.85637 0.71507,0 1.23513,-0.1922 0.5363,-0.22719 0.92631,-0.47179 0.39001,-0.2446 0.63389,-0.43698 0.27618,-0.22719 0.48742,-0.22719 0.35754,0 0.63389,0.47179 l 1.33271,2.34189 q -1.17018,1.18836 -2.84413,1.87001 -1.65773,0.66399 -3.42921,0.66399 z"
     fill="#232333"
     style="stroke-width:0.999997" />
  <path
     id="path_47"
     d="m 412.43911,312.24366 h -2.01526 q -0.66636,0 -1.0726,-0.22719 -0.40624,-0.22719 -0.5363,-0.94359 l -0.5199,-2.58655 q -1.02389,0.99598 -1.99904,1.78262 -0.97519,0.7688 -2.04775,1.32816 -1.07261,0.5242 -2.30784,0.80397 -1.20266,0.27959 -2.6816,0.27959 -1.51148,0 -2.84412,-0.43698 -1.30008,-0.47179 -2.27531,-1.38055 -0.97518,-0.90877 -1.56035,-2.28947 -0.56894,-1.39797 -0.56894,-3.30313 0,-1.6605 0.84512,-3.16328 0.84513,-1.53811 2.71411,-2.72639 1.90151,-1.18836 4.94066,-1.92244 3.03917,-0.76879 7.4435,-0.87377 v -2.16712 q 0,-3.25069 -1.30008,-4.8935 -1.28384,-1.67774 -3.81928,-1.67774 -1.65771,0 -2.81161,0.47179 -1.12132,0.4368 -1.96652,1.01357 -0.81265,0.55919 -1.43014,1.01375 -0.58517,0.43697 -1.17018,0.43697 -0.45496,0 -0.81266,-0.2446 -0.32506,-0.27959 -0.53646,-0.66416 l -0.81265,-1.57276 q 2.14528,-2.23705 4.63187,-3.33807 2.48658,-1.10096 5.5095,-1.10096 2.17779,0 3.86802,0.76879 1.69024,0.76879 2.84412,2.14965 1.15395,1.38056 1.73899,3.33807 0.58518,1.9574 0.58518,4.29931 z m -11.83158,-3.00602 q 1.20266,0 2.19404,-0.2446 0.99142,-0.27959 1.869,-0.75139 0.89384,-0.4892 1.69022,-1.18836 0.81265,-0.68157 1.59283,-1.57275 v -5.80249 q -3.15292,0.10375 -5.34697,0.55937 -2.19404,0.41939 -3.59172,1.10096 -1.38143,0.68158 -2.01527,1.62516 -0.61764,0.94359 -0.61764,2.09725 0,1.10097 0.32506,1.90495 0.32506,0.80396 0.89383,1.32816 0.56894,0.4892 1.33255,0.75138 0.76395,0.2272 1.65773,0.2272 z"
     fill="#232333"
     style="stroke-width:0.999997" />
  <path
     id="path_48"
     d="m 427.55365,312.68056 q -3.07166,0 -4.72939,-1.85252 -1.64147,-1.85255 -1.64147,-5.31295 v -17.07486 h -3.12042 q -0.40625,0 -0.69883,-0.2446 -0.27619,-0.27959 -0.27619,-0.82137 v -1.95745 l 4.24183,-0.57678 1.05636,-8.61605 q 0.0492,-0.41939 0.32507,-0.66417 0.27618,-0.27959 0.71506,-0.27959 h 2.3078 v 9.61225 h 7.42726 v 3.54778 h -7.42726 v 16.74279 q 0,1.76506 0.79642,2.62153 0.79641,0.85637 2.04777,0.85637 0.71506,0 1.23513,-0.1922 0.53646,-0.22719 0.92647,-0.47179 0.39001,-0.2446 0.63388,-0.43698 0.27619,-0.22719 0.48743,-0.22719 0.35754,0 0.63389,0.47179 l 1.33255,2.34189 q -1.17019,1.18836 -2.84413,1.87001 -1.65772,0.66399 -3.42921,0.66399 z"
     fill="#232333"
     style="stroke-width:0.999997" />
  <path
     id="path_49"
     d="m 444.16338,284.35067 v 27.89299 h -4.55062 v -27.89299 z m 1.02389,-8.7559 q 0,0.71657 -0.27618,1.34557 -0.25995,0.61176 -0.71524,1.10096 -0.43888,0.47179 -1.02389,0.75156 -0.58517,0.2796 -1.25137,0.2796 -0.66635,0 -1.25137,-0.2796 -0.56893,-0.27959 -1.02389,-0.75156 -0.43871,-0.4892 -0.69883,-1.10096 -0.25995,-0.62918 -0.25995,-1.34557 0,-0.71639 0.25995,-1.34557 0.25995,-0.66416 0.69883,-1.13596 0.45496,-0.4892 1.02389,-0.76879 0.58518,-0.2796 1.25137,-0.2796 0.66636,0 1.25137,0.2796 0.58518,0.27959 1.02389,0.76879 0.45496,0.4718 0.71524,1.13596 0.27618,0.62918 0.27618,1.34557 z"
     fill="#232333"
     style="stroke-width:0.999997" />
  <path
     id="path_50"
     d="m 462.98341,283.91375 q 2.84414,0 5.11945,1.01375 2.3078,1.01375 3.88426,2.88367 1.60907,1.87002 2.45408,4.54397 0.87759,2.639 0.87759,5.92463 0,3.30312 -0.87759,5.94212 -0.84513,2.63899 -2.45408,4.50902 -1.59283,1.87002 -3.88426,2.88366 -2.27531,0.99617 -5.11945,0.99617 -2.84415,0 -5.15195,-0.99617 -2.27531,-1.01374 -3.88426,-2.88366 -1.60907,-1.87003 -2.48658,-4.50902 -0.8776,-2.639 -0.8776,-5.94212 0,-3.26815 0.8776,-5.92463 0.8776,-2.67395 2.48658,-4.54397 1.60907,-1.87003 3.88426,-2.88367 2.3078,-1.01375 5.15195,-1.01375 z m 0,24.88697 q 3.83552,0 5.73701,-2.76131 1.90151,-2.77883 1.90151,-7.74223 0,-4.9809 -1.90151,-7.75971 -1.90149,-2.77883 -5.73701,-2.77883 -1.95026,0 -3.38045,0.71639 -1.43013,0.7164 -2.40533,2.06228 -0.94271,1.34557 -1.43014,3.33805 -0.45495,1.95742 -0.45495,4.43912 0,2.4817 0.45495,4.43912 0.48743,1.9574 1.43014,3.30313 0.97518,1.32815 2.40533,2.04478 1.43014,0.71639 3.38045,0.71639 z"
     fill="#232333"
     style="stroke-width:0.999997" />
  <path
     id="path_51"
     d="m 481.28336,312.24366 v -27.89299 h 2.71413 q 0.97518,0 1.23513,1.01375 l 0.35753,3.0235 q 1.69024,-2.00984 3.77051,-3.25071 2.09654,-1.24094 4.84316,-1.24094 2.12903,0 3.73798,0.7688 1.6415,0.75138 2.71413,2.14965 1.10508,1.38056 1.65771,3.33807 0.56894,1.9574 0.56894,4.31677 V 312.226 l -4.56686,0.0175 v -17.75644 q 0,-3.1633 -1.34895,-4.89349 -1.33255,-1.76524 -4.09555,-1.76524 -2.01526,0 -3.78676,1.04856 -1.73898,1.04857 -3.21792,2.83127 v 20.53524 z"
     fill="#232333"
     style="stroke-width:0.999997" />
  <path
     id="path_52"
     d="m 539.33617,312.24366 h -2.01528 q -0.66636,0 -1.0726,-0.22719 -0.40624,-0.22719 -0.53646,-0.94359 l -0.51991,-2.58655 q -1.02389,0.99598 -1.99902,1.78262 -0.97518,0.7688 -2.04777,1.32816 -1.0726,0.5242 -2.30781,0.80397 -1.20266,0.27959 -2.68161,0.27959 -1.51148,0 -2.84413,-0.43698 -1.30008,-0.47179 -2.27531,-1.38055 -0.97518,-0.90877 -1.56003,-2.28947 -0.56894,-1.39797 -0.56894,-3.30313 0,-1.6605 0.84513,-3.16328 0.84512,-1.53811 2.71412,-2.72639 1.90151,-1.18836 4.94065,-1.92244 3.03917,-0.76879 7.44351,-0.87377 v -2.16712 q 0,-3.25069 -1.30008,-4.8935 -1.28384,-1.67774 -3.81927,-1.67774 -1.65772,0 -2.81161,0.47179 -1.12131,0.4368 -1.96652,1.01357 -0.81265,0.55919 -1.43013,1.01375 -0.58518,0.43697 -1.17019,0.43697 -0.45512,0 -0.81265,-0.2446 -0.32506,-0.27959 -0.53646,-0.66416 l -0.81266,-1.57276 q 2.14529,-2.23705 4.63187,-3.33807 2.48659,-1.10096 5.50949,-1.10096 2.17781,0 3.86802,0.76879 1.69024,0.76879 2.84414,2.14965 1.15395,1.38056 1.73897,3.33807 0.58518,1.9574 0.58518,4.29931 z m -11.8316,-3.00602 q 1.20266,0 2.19406,-0.2446 0.99142,-0.27959 1.86898,-0.75139 0.89384,-0.4892 1.69024,-1.18836 0.81265,-0.68157 1.59283,-1.57275 v -5.80249 q -3.15293,0.10375 -5.34697,0.55937 -2.19405,0.41939 -3.59174,1.10096 -1.38143,0.68158 -2.01527,1.62516 -0.61764,0.94359 -0.61764,2.09725 0,1.10097 0.32506,1.90495 0.32506,0.80396 0.89383,1.32816 0.56894,0.4892 1.33255,0.75138 0.76395,0.2272 1.65772,0.2272 z"
     fill="#232333"
     style="stroke-width:0.999997" />
  <path
     id="path_53"
     d="m 546.58465,321.68114 v -37.33047 h 2.71411 q 0.97518,0 1.23513,1.01375 l 0.39001,3.30313 q 1.65771,-2.16715 3.78676,-3.49538 2.14527,-1.32816 4.94066,-1.32816 2.22655,0 4.04677,0.94359 1.82026,0.90876 3.10418,2.72637 1.28385,1.78265 1.96651,4.45662 0.69883,2.67395 0.69883,6.13435 0,3.07592 -0.76394,5.74987 -0.76395,2.639 -2.19405,4.5964 -1.4303,1.92246 -3.52673,3.05844 -2.08027,1.10096 -4.68063,1.10096 -2.40531,0 -4.12805,-0.85636 -1.69024,-0.85637 -2.9904,-2.4293 v 12.33864 z m 11.55528,-33.85258 q -2.22653,0 -3.91677,1.10096 -1.65772,1.10097 -3.07166,3.11086 v 13.4921 q 1.25137,1.8176 2.74664,2.55162 1.51131,0.75138 3.34792,0.75138 3.608,0 5.55825,-2.77879 1.95026,-2.77883 1.95026,-7.93448 0,-2.72639 -0.45512,-4.68379 -0.43871,-1.95742 -1.28384,-3.19825 -0.84512,-1.25835 -2.08026,-1.85255 -1.23513,-0.57677 -2.79539,-0.57677 z"
     fill="#232333"
     style="stroke-width:0.999997" />
  <path
     id="path_54"
     d="m 575.18848,321.68114 v -37.33047 h 2.71413 q 0.97518,0 1.23513,1.01375 l 0.39,3.30313 q 1.65773,-2.16715 3.78677,-3.49538 2.14528,-1.32816 4.94066,-1.32816 2.22655,0 4.0468,0.94359 1.82023,0.90876 3.10415,2.72637 1.28385,1.78265 1.96652,4.45662 0.69883,2.67395 0.69883,6.13435 0,3.07592 -0.76394,5.74987 -0.76394,2.639 -2.19404,4.5964 -1.43014,1.92246 -3.52671,3.05844 -2.08028,1.10096 -4.68065,1.10096 -2.40532,0 -4.12804,-0.85636 -1.69022,-0.85637 -2.99039,-2.4293 v 12.33864 z m 11.53906,-33.85258 q -2.22656,0 -3.91678,1.10096 -1.65773,1.10097 -3.07168,3.11086 v 13.4921 q 1.25137,1.8176 2.74664,2.55162 1.51131,0.75138 3.34796,0.75138 3.60797,0 5.55824,-2.77879 1.95025,-2.77883 1.95025,-7.93448 0,-2.72639 -0.45496,-4.68379 -0.43888,-1.95742 -1.28384,-3.19825 -0.84512,-1.25835 -2.08027,-1.85255 -1.23513,-0.57677 -2.79538,-0.57677 z"
     fill="#232333"
     style="stroke-width:0.999997" />
  <path
     id="path_55"
     d="m 41.889338,412.50814 v -34.93616 h 3.93303 v 14.13876 q 1.430185,-1.64275 3.169174,-2.60404 1.738985,-0.99599 4.01429,-0.99599 1.836496,0 3.217932,0.66417 1.413932,0.64658 2.340314,1.85255 0.942627,1.18836 1.430202,2.86618 0.487574,1.67774 0.487574,3.72257 v 15.29221 h -3.933037 v -15.29221 q 0,-2.72639 -1.17017,-4.22939 -1.153916,-1.52035 -3.526723,-1.52035 -1.738985,0 -3.26669,0.90876 -1.495197,0.90877 -2.779123,2.44676 v 17.68654 z"
     fill="#232333"
     style="stroke-width:0.999997" />
  <path
     id="path_56"
     d="m 72.475948,412.89263 q -2.649105,0 -4.079299,-1.59034 -1.413932,-1.59017 -1.413932,-4.57892 v -14.71544 h -2.681613 q -0.35755,0 -0.601329,-0.20978 -0.243779,-0.2446 -0.243779,-0.71639 v -1.67774 l 3.656741,-0.50679 0.910121,-7.42764 q 0.04871,-0.34958 0.292538,-0.57677 0.243779,-0.2446 0.617582,-0.2446 h 1.982767 v 8.28401 l 6.387109,0.0175 v 3.05843 h -6.387115 v 14.41835 q 0,1.52036 0.682594,2.25451 0.682595,0.73398 1.771488,0.73398 0.617582,0 1.056398,-0.15651 0.455068,-0.19219 0.796349,-0.40198 0.325045,-0.20978 0.552587,-0.38457 0.243779,-0.1922 0.422546,-0.1922 0.308792,0 0.552587,0.40198 l 1.153916,2.00982 q -1.007639,1.01375 -2.454078,1.60776 -1.430186,0.57677 -2.957897,0.57677 z"
     fill="#232333"
     style="stroke-width:0.999997" />
  <path
     id="path_57"
     d="m 88.19181,412.89263 q -2.649107,0 -4.079299,-1.59034 -1.413932,-1.59017 -1.413932,-4.57892 V 392.02532 H 80.00071 q -0.357551,0 -0.60133,-0.20978 -0.243779,-0.2446 -0.243779,-0.71639 v -1.67792 l 3.65674,-0.50678 0.91012,-7.42764 q 0.04871,-0.34958 0.292539,-0.57678 0.243779,-0.2446 0.617582,-0.2446 h 1.982765 v 8.28401 h 6.40336 v 3.05844 h -6.387108 v 14.41838 q 0,1.52036 0.682594,2.25451 0.682595,0.73398 1.771488,0.73398 0.617582,0 1.056398,-0.1565 0.455069,-0.1922 0.796349,-0.40199 0.325045,-0.20978 0.552571,-0.38457 0.243779,-0.1922 0.422546,-0.1922 0.308791,0 0.552587,0.40198 l 1.153916,2.00983 q -1.007639,1.01374 -2.45408,1.60775 -1.430185,0.57677 -2.957897,0.57677 z"
     fill="#232333"
     style="stroke-width:0.999997" />
  <path
     id="path_58"
     d="m 97.146762,420.63488 v -32.15737 h 2.340314 q 0.845124,0 1.056394,0.87377 l 0.32505,2.84873 q 1.43018,-1.87003 3.26669,-3.006 1.85275,-1.13596 4.25807,-1.13596 1.91776,0 3.47797,0.80396 1.5602,0.78656 2.66535,2.34189 1.10514,1.53794 1.69023,3.84489 0.60133,2.30694 0.60133,5.29548 0,2.65648 -0.66634,4.96342 -0.66634,2.27197 -1.90151,3.96723 -1.23516,1.66015 -3.03916,2.63899 -1.78774,0.94359 -4.03054,0.94359 -2.08028,0 -3.54297,-0.73398 -1.46271,-0.73398 -2.5841,-2.07974 v 10.6259 z m 9.946338,-29.16881 q -1.91776,0 -3.38046,0.94358 -1.43018,0.94359 -2.6491,2.67395 v 11.62208 q 1.07265,1.57276 2.35657,2.20207 1.30017,0.64658 2.89288,0.64658 3.10417,0 4.77815,-2.39432 1.67397,-2.39432 1.67397,-6.83343 0,-2.34188 -0.39006,-4.03714 -0.3738,-1.67773 -1.10514,-2.74387 -0.73133,-1.08355 -1.78774,-1.59016 -1.0564,-0.50679 -2.40532,-0.50679 z"
     fill="#232333"
     style="stroke-width:0.999997" />
  <path
     id="path_59"
     d="m 120.40364,409.90411 q 0,-0.61177 0.19502,-1.15337 0.22752,-0.5416 0.56882,-0.94358 0.3738,-0.40199 0.87761,-0.64659 0.50382,-0.2446 1.07266,-0.2446 0.56882,0 1.07265,0.2446 0.50381,0.2446 0.87761,0.64659 0.3738,0.40198 0.56882,0.94358 0.22753,0.54178 0.22753,1.15337 0,0.64658 -0.22753,1.18836 -0.19502,0.52419 -0.56882,0.92617 -0.3738,0.40199 -0.87761,0.61177 -0.50381,0.2446 -1.07265,0.2446 -0.56883,0 -1.07266,-0.2446 -0.50381,-0.20978 -0.87761,-0.61177 -0.35755,-0.40198 -0.56882,-0.92617 -0.19502,-0.54178 -0.19502,-1.18836 z m 0,-17.79141 q 0,-0.61176 0.19502,-1.15337 0.22752,-0.54178 0.56882,-0.94358 0.3738,-0.40198 0.87761,-0.64658 0.50382,-0.2446 1.07266,-0.2446 0.56882,0 1.07265,0.2446 0.50381,0.2446 0.87761,0.64658 0.3738,0.40198 0.56882,0.94358 0.22753,0.54161 0.22753,1.15337 0,0.64658 -0.22753,1.18836 -0.19502,0.5242 -0.56882,0.92618 -0.3738,0.40198 -0.87761,0.64658 -0.50381,0.20978 -1.07265,0.20978 -0.56883,0 -1.07266,-0.20978 -0.50381,-0.2446 -0.87761,-0.64658 -0.35755,-0.40198 -0.56882,-0.92618 -0.19502,-0.5416 -0.19502,-1.18836 z"
     fill="#232333"
     style="stroke-width:0.999997" />
  <path
     id="path_60"
     d="m 131.52013,412.9975 q -0.30879,0.82138 -0.92637,1.24077 -0.60133,0.40198 -1.23517,0.40198 h -1.65772 l 13.26178,-35.49533 q 0.29254,-0.75139 0.8126,-1.15337 0.53632,-0.40198 1.25142,-0.40198 h 1.65772 z"
     fill="#232333"
     style="stroke-width:0.999997" />
  <path
     id="path_61"
     d="m 144.22934,412.9975 q -0.30879,0.82138 -0.92638,1.24077 -0.60133,0.40198 -1.23516,0.40198 h -1.65773 l 13.26179,-35.49524 q 0.29253,-0.75139 0.8126,-1.15337 0.53632,-0.40198 1.25142,-0.40198 h 1.65772 z"
     fill="#232333"
     style="stroke-width:0.999997" />
  <path
     id="path_62"
     d="m 156.71101,388.47751 h 3.08792 q 0.48743,0 0.79642,0.26218 0.30866,0.26201 0.42248,0.61177 l 4.27433,15.46698 q 0.17877,0.85637 0.32506,1.6605 0.14597,0.78656 0.25995,1.59052 0.17877,-0.80396 0.39001,-1.59052 0.22748,-0.80396 0.47136,-1.6605 l 4.71323,-15.55431 q 0.11316,-0.34958 0.37377,-0.59418 0.29242,-0.2446 0.69883,-0.2446 h 1.69023 q 0.43888,0 0.73131,0.2446 0.29242,0.2446 0.39001,0.59418 l 4.61561,15.55436 q 0.24371,0.82137 0.42248,1.64275 0.19501,0.80396 0.37377,1.59052 0.11317,-0.78656 0.29243,-1.64275 0.17876,-0.85636 0.37377,-1.59052 l 4.37211,-15.46698 q 0.11317,-0.38457 0.42248,-0.61176 0.30866,-0.26219 0.73147,-0.26219 h 2.95791 l -7.23223,24.03064 h -3.10418 q -0.56894,0 -0.79641,-0.80397 l -4.94058,-16.28863 q -0.17877,-0.5416 -0.29243,-1.08356 -0.11316,-0.57677 -0.22747,-1.11837 -0.11317,0.54178 -0.22748,1.11837 -0.11316,0.57677 -0.29242,1.11838 l -5.00568,16.27091 q -0.24371,0.80396 -0.91007,0.80396 h -2.95805 z"
     fill="#232333"
     style="stroke-width:0.999997" />
  <path
     id="path_63"
     d="m 189.7517,388.47751 h 3.08791 q 0.48743,0 0.79642,0.26218 0.30866,0.26201 0.42264,0.61177 l 4.27434,15.46698 q 0.17877,0.85637 0.3249,1.6605 0.14596,0.78656 0.25995,1.59052 0.17876,-0.80396 0.39,-1.59052 0.22748,-0.80396 0.47136,-1.6605 l 4.7131,-15.55431 q 0.11316,-0.34958 0.37377,-0.59418 0.29242,-0.2446 0.69883,-0.2446 h 1.69022 q 0.43872,0 0.7313,0.2446 0.29243,0.2446 0.39001,0.59418 l 4.61562,15.55436 q 0.24371,0.82137 0.42264,1.64275 0.195,0.80396 0.37377,1.59052 0.11317,-0.78656 0.29242,-1.64275 0.17877,-0.85636 0.37378,-1.59052 l 4.37182,-15.46698 q 0.11316,-0.38457 0.42264,-0.61176 0.30866,-0.26219 0.73147,-0.26219 h 2.9579 l -7.23222,24.03064 h -3.12045 q -0.56894,0 -0.79642,-0.80397 l -4.94066,-16.28838 q -0.17876,-0.54161 -0.29242,-1.08356 -0.11316,-0.57677 -0.22748,-1.11838 -0.11316,0.54178 -0.22747,1.11838 -0.11317,0.57677 -0.29243,1.11837 l -5.00565,16.27091 q -0.24372,0.80397 -0.91008,0.80397 h -2.95788 z"
     fill="#232333"
     style="stroke-width:0.999997" />
  <path
     id="path_64"
     d="m 222.77613,388.47751 h 3.08791 q 0.48743,0 0.79642,0.26218 0.30866,0.26201 0.42264,0.61177 l 4.27432,15.46698 q 0.17877,0.85637 0.32506,1.6605 0.14597,0.78656 0.25995,1.59052 0.17877,-0.80396 0.39001,-1.59052 0.22748,-0.80396 0.47135,-1.6605 l 4.71309,-15.55431 q 0.11316,-0.34958 0.37377,-0.59418 0.29242,-0.2446 0.69883,-0.2446 h 1.69023 q 0.43872,0 0.73131,0.2446 0.29242,0.2446 0.39001,0.59418 l 4.6156,15.55436 q 0.24371,0.82137 0.42264,1.64275 0.195,0.80396 0.37377,1.59052 0.11317,-0.78656 0.29242,-1.64275 0.17877,-0.85636 0.37378,-1.59052 l 4.37183,-15.46698 q 0.11317,-0.38457 0.42248,-0.61176 0.30883,-0.26219 0.73147,-0.26219 h 2.95789 l -7.23222,24.03064 h -3.10417 q -0.56877,0 -0.79641,-0.80397 l -4.94065,-16.28838 q -0.17877,-0.54161 -0.29242,-1.08356 -0.11317,-0.57677 -0.22748,-1.11838 -0.11316,0.54178 -0.22748,1.11838 -0.11316,0.57677 -0.29242,1.11837 l -5.00567,16.27091 q -0.24371,0.80397 -0.91007,0.80397 h -2.95789 z"
     fill="#232333"
     style="stroke-width:0.999997" />
  <path
     id="path_65"
     d="m 256.07686,409.90411 q 0,-0.61177 0.19501,-1.15337 0.22747,-0.5416 0.56893,-0.94358 0.37377,-0.40199 0.8776,-0.64659 0.50367,-0.2446 1.0726,-0.2446 0.56894,0 1.07261,0.2446 0.50366,0.2446 0.87759,0.64659 0.37377,0.40198 0.56894,0.94358 0.22748,0.54178 0.22748,1.15337 0,0.64658 -0.22748,1.18836 -0.195,0.52419 -0.56894,0.92617 -0.37377,0.40199 -0.87759,0.61177 -0.504,0.2446 -1.07261,0.2446 -0.56893,0 -1.0726,-0.2446 -0.50366,-0.20978 -0.8776,-0.61177 -0.35753,-0.40198 -0.56893,-0.92617 -0.19501,-0.54178 -0.19501,-1.18836 z"
     fill="#232333"
     style="stroke-width:0.999997" />
  <path
     id="path_66"
     d="m 275.05941,388.11052 q 2.45407,0 4.40434,0.87377 1.98277,0.87378 3.34794,2.48172 1.38143,1.60776 2.1128,3.91481 0.74771,2.27199 0.74771,5.10321 0,2.84873 -0.74771,5.1207 -0.73147,2.27201 -2.1128,3.89734 -1.36519,1.60793 -3.34794,2.48172 -1.96652,0.85637 -4.40434,0.85637 -2.4541,0 -4.43685,-0.85637 -1.96651,-0.87377 -3.34795,-2.48172 -1.38142,-1.60775 -2.14528,-3.89734 -0.74771,-2.27197 -0.74771,-5.1207 0,-2.81376 0.74771,-5.10321 0.7477,-2.30695 2.14528,-3.91481 1.38143,-1.60775 3.34795,-2.48172 1.98275,-0.87377 4.43685,-0.87377 z m 0,21.42656 q 3.31545,0 4.94066,-2.37684 1.6253,-2.39433 1.6253,-6.65867 0,-4.29929 -1.6253,-6.69362 -1.62531,-2.39432 -4.94066,-2.39432 -1.67398,0 -2.90915,0.61176 -1.23513,0.61177 -2.08027,1.78263 -0.81265,1.15337 -1.23514,2.86621 -0.39,1.67774 -0.39,3.80993 0,2.13219 0.39,3.80996 0.42265,1.67774 1.23514,2.84871 0.84512,1.13596 2.08027,1.74772 1.23513,0.61177 2.90915,0.61177 z"
     fill="#232333"
     style="stroke-width:0.999997" />
  <path
     id="path_67"
     d="m 289.83264,420.63488 v -32.15737 h 2.34033 q 0.84512,0 1.05636,0.87377 l 0.3249,2.84873 q 1.43013,-1.87003 3.26669,-3.006 1.85274,-1.13596 4.25807,-1.13596 1.91776,0 3.47797,0.80396 1.56036,0.78656 2.66535,2.34189 1.10507,1.53794 1.69023,3.84489 0.60141,2.30694 0.60141,5.29548 0,2.65648 -0.66635,4.96342 -0.66636,2.27197 -1.90151,3.96723 -1.23513,1.66015 -3.03915,2.63899 -1.78774,0.94359 -4.03056,0.94359 -2.08027,0 -3.54296,-0.73398 -1.46261,-0.73398 -2.58409,-2.07974 v 10.6259 z m 9.94634,-29.16881 q -1.91776,0 -3.38045,0.94358 -1.43014,0.94359 -2.6491,2.67395 v 11.62208 q 1.0726,1.57276 2.35654,2.20207 1.30008,0.64658 2.89291,0.64658 3.10417,0 4.77815,-2.39432 1.67396,-2.39432 1.67396,-6.83343 0,-2.34188 -0.39001,-4.03714 -0.37377,-1.67773 -1.10507,-2.74387 -0.73147,-1.08355 -1.78774,-1.59016 -1.05636,-0.50679 -2.40533,-0.50679 z"
     fill="#232333"
     style="stroke-width:0.999997" />
  <path
     id="path_68"
     d="m 322.33701,388.11052 q 1.99902,0 3.70549,0.73398 1.69022,0.71639 2.9254,2.07973 1.23514,1.34557 1.91776,3.37303 0.69883,1.99236 0.69883,4.56144 0,0.99616 -0.195,1.32816 -0.195,0.33199 -0.7477,0.33199 l -14.85451,-0.0175 q 0.0492,2.27199 0.56894,3.96724 0.5363,1.67774 1.46261,2.81377 0.92647,1.11838 2.21031,1.67774 1.28385,0.5416 2.86037,0.5416 1.47885,0 2.53535,-0.34958 1.0726,-0.38457 1.85276,-0.80396 0.76394,-0.41939 1.28384,-0.78656 0.5363,-0.38457 0.91007,-0.38457 0.48743,0 0.74771,0.40198 l 1.10507,1.53812 q -0.73146,0.94358 -1.73899,1.66015 -1.00765,0.68158 -2.17779,1.13596 -1.15395,0.45438 -2.38907,0.66417 -1.23513,0.2446 -2.45409,0.2446 -2.3078,0 -4.27432,-0.82137 -1.93399,-0.85637 -3.38045,-2.46424 -1.4139,-1.64292 -2.2103,-4.03714 -0.79641,-2.39433 -0.79641,-5.5052 0,-2.51666 0.69883,-4.70126 0.73147,-2.18462 2.08029,-3.775 1.34895,-1.60775 3.28293,-2.51666 1.934,-0.92618 4.37184,-0.92618 z m 0.082,3.0934 q -2.84413,0 -4.46935,1.78263 -1.62531,1.74772 -2.03153,4.8935 h 12.15664 q 0,-1.46795 -0.37377,-2.67395 -0.37377,-1.24077 -1.10507,-2.1147 -0.73147,-0.90876 -1.78775,-1.38056 -1.04013,-0.50678 -2.38907,-0.50678 z"
     fill="#232333"
     style="stroke-width:0.999997" />
  <path
     id="path_69"
     d="m 335.84258,412.50814 v -24.03063 h 2.34032 q 0.84512,0 1.05636,0.87377 l 0.30883,2.60404 q 1.46261,-1.73032 3.23419,-2.79629 1.80399,-1.06597 4.16055,-1.06597 1.83649,0 3.21793,0.66417 1.41407,0.64658 2.34032,1.85254 0.94271,1.18836 1.43014,2.86619 0.48743,1.67791 0.48743,3.72257 v 15.29221 l -3.91677,0.0175 v -15.2922 q 0,-2.72639 -1.17019,-4.22939 -1.15395,-1.52036 -3.52671,-1.52036 -1.73899,0 -3.26669,0.90877 -1.49525,0.90876 -2.77913,2.44674 v 17.68655 z"
     fill="#232333"
     style="stroke-width:0.999997" />
  <path
     id="path_70"
     d="m 372.45875,392.44475 q -0.25995,0.52419 -0.81266,0.52419 -0.32506,0 -0.7477,-0.26201 -0.42248,-0.26218 -1.04013,-0.57677 -0.60141,-0.33199 -1.43014,-0.59418 -0.84512,-0.27959 -1.98277,-0.27959 -0.99142,0 -1.78773,0.27959 -0.79642,0.26219 -1.36519,0.73398 -0.5527,0.47179 -0.86136,1.11837 -0.29243,0.61177 -0.29243,1.34557 0,0.92618 0.48743,1.53812 0.50383,0.61176 1.31631,1.06597 0.81266,0.45438 1.85275,0.80396 1.04013,0.332 2.11278,0.73398 1.10508,0.38457 2.1453,0.85637 1.04013,0.47179 1.85275,1.18836 0.81265,0.71639 1.30008,1.74755 0.50366,1.01374 0.50366,2.46422 0,1.6605 -0.5527,3.07593 -0.55253,1.39797 -1.6253,2.44676 -1.0726,1.01375 -2.64911,1.60776 -1.56036,0.59418 -3.62423,0.59418 -2.34033,0 -4.24182,-0.80397 -1.9015,-0.82137 -3.21795,-2.11469 l 0.92631,-1.60775 q 0.17877,-0.31441 0.42248,-0.4718 0.24371,-0.1565 0.63388,-0.1565 0.39001,0 0.84513,0.332 0.43872,0.33199 1.05636,0.73397 0.63389,0.40199 1.52756,0.73398 0.91007,0.332 2.24282,0.332 1.15379,0 1.99901,-0.31441 0.86136,-0.33218 1.43013,-0.87378 0.56894,-0.5416 0.84513,-1.25835 0.29242,-0.71639 0.29242,-1.52053 0,-0.99616 -0.50366,-1.64274 -0.48743,-0.66417 -1.30008,-1.11838 -0.81265,-0.47179 -1.86898,-0.80396 -1.04013,-0.34958 -2.14531,-0.73398 -1.0726,-0.38457 -2.14528,-0.85636 -1.04013,-0.50679 -1.85275,-1.24094 -0.81265,-0.73398 -1.31632,-1.80013 -0.48742,-1.08356 -0.48742,-2.63898 0,-1.38055 0.53646,-2.63901 0.53647,-1.27575 1.54412,-2.23705 1.00766,-0.97857 2.4866,-1.53794 1.47885,-0.57677 3.38045,-0.57677 2.21029,0 3.94926,0.75156 1.7715,0.73398 3.03917,2.04478 z"
     fill="#232333"
     style="stroke-width:0.999997" />
  <path
     id="path_71"
     d="m 387.10196,388.11052 q 2.45409,0 4.40434,0.87377 1.98276,0.87378 3.34795,2.48172 1.38142,1.60776 2.11278,3.91481 0.7477,2.27199 0.7477,5.10321 0,2.84873 -0.7477,5.1207 -0.73147,2.27201 -2.11278,3.89734 -1.36519,1.60793 -3.34795,2.48172 -1.96652,0.85637 -4.40434,0.85637 -2.45408,0 -4.43685,-0.85637 -1.96652,-0.87377 -3.34794,-2.48172 -1.38143,-1.60775 -2.14529,-3.89734 -0.74771,-2.27197 -0.74771,-5.1207 0,-2.81376 0.74771,-5.10321 0.74771,-2.30695 2.14529,-3.91481 1.38142,-1.60775 3.34794,-2.48172 1.98277,-0.87377 4.43685,-0.87377 z m 0,21.42656 q 3.31544,0 4.94068,-2.37684 1.6253,-2.39433 1.6253,-6.65867 0,-4.29929 -1.6253,-6.69362 -1.62531,-2.39432 -4.94068,-2.39432 -1.67398,0 -2.90913,0.61176 -1.23513,0.61177 -2.08029,1.78263 -0.81265,1.15337 -1.23513,2.86621 -0.39001,1.67774 -0.39001,3.80993 0,2.13219 0.39001,3.80996 0.42248,1.67774 1.23513,2.84871 0.84513,1.13596 2.08029,1.74772 1.23513,0.61177 2.90913,0.61177 z"
     fill="#232333"
     style="stroke-width:0.999997" />
  <path
     id="path_72"
     d="m 401.8752,412.50814 v -24.03063 h 2.3403 q 0.84513,0 1.05637,0.87377 l 0.30866,2.60404 q 1.46261,-1.73032 3.23419,-2.79629 1.80399,-1.06597 4.16056,-1.06597 1.83648,0 3.21792,0.66417 1.4139,0.64658 2.34033,1.85254 0.9427,1.18836 1.43013,2.86619 0.48743,1.67791 0.48743,3.72257 v 15.29221 l -3.90052,0.0175 v -15.2922 q 0,-2.72639 -1.17018,-4.22939 -1.15395,-1.52036 -3.52673,-1.52036 -1.73898,0 -3.2667,0.90877 -1.49508,0.90876 -2.77912,2.44674 v 17.68655 z"
     fill="#232333"
     style="stroke-width:0.999997" />
  <path
     id="path_73"
     d="m 433.22566,388.07556 q 1.46261,0 2.71411,0.34958 1.28384,0.332 2.30782,0.99599 h 6.06207 v 1.57276 q 0,0.78655 -0.92631,0.99616 l -2.53533,0.38457 q 0.74771,1.53812 0.74771,3.44293 0,1.74772 -0.63388,3.19827 -0.61765,1.41555 -1.739,2.44676 -1.10507,1.01374 -2.64909,1.57276 -1.52772,0.5416 -3.34795,0.5416 -1.56036,0 -2.9579,-0.40198 -0.69884,0.47179 -1.07261,1.01374 -0.35753,0.54161 -0.35753,1.06598 0,0.85636 0.63388,1.31075 0.63389,0.41939 1.69022,0.61176 1.05637,0.1922 2.40532,0.2446 1.34895,0.0528 2.73038,0.1565 1.4139,0.0879 2.76287,0.34958 1.34895,0.26219 2.40531,0.85637 1.05637,0.59418 1.69024,1.64274 0.63388,1.04857 0.63388,2.7089 0,1.53794 -0.73147,2.98855 -0.69883,1.45055 -2.04778,2.5691 -1.34895,1.13596 -3.28293,1.80009 -1.934,0.68158 -4.38809,0.68158 -2.45408,0 -4.30683,-0.5242 -1.83649,-0.52419 -3.03915,-1.39797 -1.2189,-0.87377 -1.83651,-2.04479 -0.60141,-1.13596 -0.60141,-2.39433 0,-1.78261 1.04013,-3.006 1.05636,-1.25835 2.89289,-1.99234 -0.94271,-0.47179 -1.52772,-1.25835 -0.5527,-0.80396 -0.5527,-2.13215 0,-0.5242 0.17876,-1.06615 0.17877,-0.57677 0.53647,-1.11838 0.37377,-0.54178 0.91007,-1.04856 0.53647,-0.50679 1.23513,-0.87378 -1.65772,-0.99616 -2.60035,-2.63899 -0.92631,-1.66051 -0.92631,-3.8624 0,-1.74755 0.61765,-3.18076 0.63388,-1.45054 1.77148,-2.44676 1.12131,-1.01357 2.66535,-1.57276 1.56036,-0.54178 3.41297,-0.54178 z m 6.97218,25.74335 q 0,-0.90877 -0.47119,-1.45054 -0.47119,-0.54161 -1.25137,-0.82138 -0.79642,-0.31441 -1.83651,-0.45438 -1.04013,-0.13892 -2.17779,-0.1922 -1.15395,-0.0703 -2.34031,-0.13892 -1.18642,-0.0703 -2.27529,-0.26201 -1.25137,0.64659 -2.04779,1.57276 -0.76394,0.92618 -0.76394,2.20207 0,0.80397 0.37377,1.48572 0.39001,0.71639 1.18642,1.20595 0.79642,0.52419 1.98277,0.80396 1.2189,0.31441 2.84414,0.31441 1.59283,0 2.84413,-0.31441 1.25137,-0.31441 2.11278,-0.87378 0.8776,-0.57677 1.34895,-1.34556 0.47119,-0.78656 0.47119,-1.73032 z m -6.97218,-13.05518 q 1.18643,0 2.09653,-0.34958 0.92631,-0.34958 1.54396,-0.99598 0.61764,-0.64659 0.9263,-1.52036 0.30866,-0.90877 0.30866,-1.9749 0,-2.20207 -1.25136,-3.51284 -1.23514,-1.31075 -3.62423,-1.31075 -2.35658,0 -3.62425,1.31075 -1.23513,1.31075 -1.23513,3.51284 0,1.06598 0.30866,1.9749 0.32506,0.87377 0.94271,1.52036 0.61764,0.64658 1.52772,0.99598 0.91007,0.34958 2.08029,0.34958 z"
     fill="#232333"
     style="stroke-width:0.999997" />
  <path
     id="path_74"
     d="m 463.95855,412.50814 h -1.739 q -0.56894,0 -0.92631,-0.19219 -0.35753,-0.1922 -0.47135,-0.80397 l -0.43872,-2.23705 q -0.8776,0.85637 -1.72274,1.53795 -0.84512,0.66416 -1.77148,1.13595 -0.92647,0.45439 -1.98277,0.68158 -1.04013,0.2446 -2.3078,0.2446 -1.30008,0 -2.45409,-0.38457 -1.12132,-0.40198 -1.96651,-1.18836 -0.84512,-0.78656 -1.34895,-1.97487 -0.48743,-1.20577 -0.48743,-2.84872 0,-1.41556 0.73147,-2.72639 0.73147,-1.32816 2.34031,-2.34189 1.6253,-1.01375 4.25806,-1.6605 2.61661,-0.66417 6.41962,-0.75139 v -1.87004 q 0,-2.79627 -1.12131,-4.22938 -1.10507,-1.45072 -3.28293,-1.45072 -1.43014,0 -2.42157,0.40198 -0.97518,0.38458 -1.69024,0.87378 -0.69883,0.47179 -1.23513,0.87377 -0.50399,0.38458 -1.00765,0.38458 -0.39001,0 -0.69883,-0.20979 -0.29243,-0.2446 -0.47136,-0.57677 l -0.69883,-1.34557 q 1.85275,-1.92242 3.99805,-2.86618 2.14527,-0.94359 4.74564,-0.94359 1.86898,0 3.33168,0.66417 1.4626,0.66417 2.45409,1.85255 0.99142,1.18836 1.49525,2.86618 0.50366,1.67774 0.50366,3.70508 z m -10.19013,-2.58657 q 1.04013,0 1.9015,-0.20978 0.86137,-0.2446 1.60907,-0.64659 0.76394,-0.41939 1.46261,-1.01374 0.69883,-0.59418 1.36519,-1.34557 v -4.99834 q -2.71411,0.0879 -4.61563,0.47179 -1.90151,0.34958 -3.08792,0.94358 -1.18642,0.59418 -1.73897,1.39797 -0.53647,0.80397 -0.53647,1.80015 0,0.94358 0.29243,1.64274 0.29258,0.68158 0.76394,1.13596 0.48742,0.41939 1.15395,0.64658 0.66636,0.1922 1.43013,0.1922 z"
     fill="#232333"
     style="stroke-width:0.999997" />
  <path
     id="path_75"
     d="m 469.208,420.63488 v -32.15737 h 2.3403 q 0.84513,0 1.05637,0.87377 l 0.32506,2.84873 q 1.43013,-1.87003 3.26668,-3.006 1.85276,-1.13596 4.25808,-1.13596 1.91774,0 3.47797,0.80396 1.56019,0.78656 2.66535,2.34189 1.10507,1.53794 1.69023,3.84489 0.60141,2.30694 0.60141,5.29548 0,2.65648 -0.66635,4.96342 -0.66636,2.27197 -1.90151,3.96723 -1.23513,1.66015 -3.03915,2.63899 -1.78774,0.94359 -4.03054,0.94359 -2.08029,0 -3.54298,-0.73398 -1.46261,-0.73398 -2.58411,-2.07974 v 10.6259 z m 9.94633,-29.16881 q -1.91776,0 -3.38045,0.94358 -1.43014,0.94359 -2.64911,2.67395 v 11.62208 q 1.0726,1.57276 2.35657,2.20207 1.30008,0.64658 2.89288,0.64658 3.10416,0 4.77814,-2.39432 1.67398,-2.39432 1.67398,-6.83343 0,-2.34188 -0.39,-4.03714 -0.37377,-1.67773 -1.10508,-2.74387 -0.73147,-1.08355 -1.78775,-1.59016 -1.05637,-0.50679 -2.40532,-0.50679 z"
     fill="#232333"
     style="stroke-width:0.999997" />
  <path
     id="path_76"
     d="m 492.85492,420.63488 v -32.15737 h 2.34032 q 0.84512,0 1.05636,0.87377 l 0.32506,2.84873 q 1.43014,-1.87003 3.26668,-3.006 1.85275,-1.13596 4.25807,-1.13596 1.91776,0 3.47799,0.80396 1.56002,0.78656 2.66533,2.34189 1.10507,1.53794 1.69023,3.84489 0.60141,2.30694 0.60141,5.29548 0,2.65648 -0.66635,4.96342 -0.66636,2.27197 -1.90151,3.96723 -1.23513,1.66015 -3.03917,2.63899 -1.78774,0.94359 -4.03054,0.94359 -2.08029,0 -3.54296,-0.73398 -1.46278,-0.73398 -2.58411,-2.07974 v 10.6259 z m 9.94633,-29.16881 q -1.91776,0 -3.38045,0.94358 -1.43014,0.94359 -2.6491,2.67395 v 11.62208 q 1.0726,1.57276 2.35656,2.20207 1.30008,0.64658 2.89289,0.64658 3.10417,0 4.77815,-2.39432 1.67398,-2.39432 1.67398,-6.83343 0,-2.34188 -0.39001,-4.03714 -0.37377,-1.67773 -1.10507,-2.74387 -0.73147,-1.08355 -1.78777,-1.59016 -1.05637,-0.50679 -2.40532,-0.50679 z"
     fill="#232333"
     style="stroke-width:0.999997" />
  <path
     id="path_77"
     d="m 515.23418,409.90411 q 0,-0.61177 0.19501,-1.15337 0.22747,-0.5416 0.56893,-0.94358 0.37377,-0.40199 0.8776,-0.64659 0.50367,-0.2446 1.0726,-0.2446 0.56894,0 1.07261,0.2446 0.50382,0.2446 0.87759,0.64659 0.37377,0.40198 0.56894,0.94358 0.22748,0.54178 0.22748,1.15337 0,0.64658 -0.22748,1.18836 -0.195,0.52419 -0.56894,0.92617 -0.37377,0.40199 -0.87759,0.61177 -0.504,0.2446 -1.07261,0.2446 -0.56893,0 -1.0726,-0.2446 -0.50383,-0.20978 -0.8776,-0.61177 -0.35753,-0.40198 -0.56893,-0.92617 -0.19501,-0.54178 -0.19501,-1.18836 z"
     fill="#232333"
     style="stroke-width:0.999997" />
  <path
     id="path_78"
     d="m 540.40882,392.75935 q -0.17877,0.26219 -0.35753,0.40199 -0.17877,0.13891 -0.50383,0.13891 -0.32506,0 -0.73147,-0.27959 -0.37377,-0.31441 -0.97518,-0.66417 -0.60141,-0.34958 -1.46261,-0.64658 -0.84513,-0.31441 -2.08027,-0.31441 -1.62531,0 -2.8929,0.64658 -1.25137,0.61177 -2.11279,1.80011 -0.84513,1.18836 -1.28385,2.8662 -0.42264,1.67792 -0.42264,3.77498 0,2.18461 0.47119,3.89734 0.47119,1.67774 1.30008,2.84871 0.84512,1.13596 2.03153,1.74772 1.2189,0.59418 2.71411,0.59418 1.43014,0 2.35658,-0.34958 0.92647,-0.38457 1.54412,-0.82137 0.61764,-0.45439 1.00765,-0.80397 0.39001,-0.38457 0.79642,-0.38457 0.50382,0 0.7477,0.40198 l 1.10508,1.53812 q -1.46261,1.92246 -3.6405,2.81375 -2.17778,0.87377 -4.6156,0.87377 -2.09655,0 -3.90053,-0.82137 -1.78774,-0.82137 -3.10417,-2.39434 -1.31632,-1.59017 -2.09654,-3.89731 -0.74771,-2.30696 -0.74771,-5.24306 0,-2.67394 0.6826,-4.96341 0.69883,-2.27197 2.03151,-3.9148 1.34895,-1.66033 3.31544,-2.58658 1.96652,-0.92617 4.50188,-0.92617 2.3403,0 4.14431,0.82137 1.80399,0.80396 3.20167,2.30695 z"
     fill="#232333"
     style="stroke-width:0.999997" />
  <path
     id="path_79"
     d="m 554.07689,388.11052 q 2.45409,0 4.40436,0.87377 1.98275,0.87378 3.34794,2.48172 1.38143,1.60776 2.11278,3.91481 0.7477,2.27199 0.7477,5.10321 0,2.84873 -0.7477,5.1207 -0.73147,2.27201 -2.11278,3.89734 -1.36519,1.60793 -3.34794,2.48172 -1.96652,0.85637 -4.40436,0.85637 -2.45406,0 -4.43684,-0.85637 -1.96652,-0.87377 -3.34794,-2.48172 -1.38143,-1.60775 -2.1453,-3.89734 -0.74771,-2.27197 -0.74771,-5.1207 0,-2.81376 0.74771,-5.10321 0.7477,-2.30695 2.1453,-3.91481 1.38142,-1.60775 3.34794,-2.48172 1.98278,-0.87377 4.43684,-0.87377 z m 0,21.42656 q 3.31545,0 4.94067,-2.37684 1.62531,-2.39433 1.62531,-6.65867 0,-4.29929 -1.62531,-6.69362 -1.6253,-2.39432 -4.94067,-2.39432 -1.67398,0 -2.90913,0.61176 -1.23514,0.61177 -2.08029,1.78263 -0.81266,1.15337 -1.23514,2.86621 -0.39,1.67774 -0.39,3.80993 0,2.13219 0.39,3.80996 0.42248,1.67774 1.23514,2.84871 0.84512,1.13596 2.08029,1.74772 1.23513,0.61177 2.90913,0.61177 z"
     fill="#232333"
     style="stroke-width:0.999997" />
  <path
     id="path_80"
     d="m 568.85012,412.50814 v -24.03063 h 2.34033 q 0.84512,0 1.05636,0.87377 l 0.29242,2.46423 q 1.23514,-1.64275 2.76286,-2.67396 1.54395,-1.04856 3.57548,-1.04856 2.27531,0 3.65674,1.34557 1.41406,1.34556 2.03153,3.65265 0.47136,-1.31075 1.2189,-2.25451 0.76394,-0.94359 1.72272,-1.57276 0.94271,-0.61176 1.99904,-0.90877 1.0726,-0.27959 2.17779,-0.27959 1.77147,0 3.13666,0.61176 1.38142,0.59419 2.34032,1.74755 0.97518,1.15337 1.47901,2.86621 0.50366,1.67774 0.50366,3.86236 v 15.29221 l -3.93303,0.0528 v -15.292 q 0,-2.81377 -1.15395,-4.26435 -1.15379,-1.46795 -3.33168,-1.46795 -0.97518,0 -1.85276,0.38457 -0.86136,0.34958 -1.52756,1.06597 -0.66636,0.71657 -1.05636,1.80009 -0.37377,1.06598 -0.37377,2.48172 v 15.29221 h -3.93301 l 0.0162,-15.29221 q 0,-2.90114 -1.0726,-4.31677 -1.07261,-1.41555 -3.15293,-1.41555 -1.46261,0 -2.71411,0.85637 -1.23513,0.82137 -2.27531,2.27198 v 17.91375 z"
     fill="#232333"
     style="stroke-width:0.999997" />
</svg>
